<svg width="73" height="73" viewBox="0 0 73 73" fill="none" xmlns="http://www.w3.org/2000/svg">
<circle cx="34.5117" cy="35.1616" r="28" fill="white" fill-opacity="0.1"/>
<circle cx="34.5117" cy="35.1616" r="24" fill="#69FFE5" fill-opacity="0.2"/>
<mask id="path-3-inside-1_605_22438" fill="white">
<path d="M53.6636 35.1615C54.2158 35.1615 54.6741 34.7135 54.6468 34.1618C54.4803 30.8077 53.478 27.5425 51.7242 24.6662C49.7966 21.5048 47.0355 18.9354 43.7439 17.2397C40.4523 15.5441 36.7573 14.7877 33.0642 15.0535C29.704 15.2954 26.4636 16.3749 23.6359 18.1866C23.1709 18.4846 23.0722 19.1178 23.3928 19.5675C23.7134 20.0172 24.3412 20.1258 24.8078 19.8304C27.3327 18.2322 30.2181 17.2796 33.2089 17.0643C36.5327 16.825 39.8583 17.5058 42.8207 19.0319C45.7831 20.558 48.2681 22.8705 50.0029 25.7157C51.5639 28.2758 52.4634 31.1783 52.628 34.1619C52.6584 34.7134 53.1113 35.1615 53.6636 35.1615Z"/>
</mask>
<path d="M53.6636 35.1615C54.2158 35.1615 54.6741 34.7135 54.6468 34.1618C54.4803 30.8077 53.478 27.5425 51.7242 24.6662C49.7966 21.5048 47.0355 18.9354 43.7439 17.2397C40.4523 15.5441 36.7573 14.7877 33.0642 15.0535C29.704 15.2954 26.4636 16.3749 23.6359 18.1866C23.1709 18.4846 23.0722 19.1178 23.3928 19.5675C23.7134 20.0172 24.3412 20.1258 24.8078 19.8304C27.3327 18.2322 30.2181 17.2796 33.2089 17.0643C36.5327 16.825 39.8583 17.5058 42.8207 19.0319C45.7831 20.558 48.2681 22.8705 50.0029 25.7157C51.5639 28.2758 52.4634 31.1783 52.628 34.1619C52.6584 34.7134 53.1113 35.1615 53.6636 35.1615Z" stroke="url(#paint0_linear_605_22438)" stroke-width="4" stroke-linecap="round" mask="url(#path-3-inside-1_605_22438)"/>
<mask id="path-4-inside-2_605_22438" fill="white">
<path d="M20.9691 21.619C20.5785 21.2284 19.9377 21.2212 19.567 21.6306C17.6723 23.7232 16.2355 26.1935 15.3541 28.8832C14.3687 31.8901 14.1049 35.0867 14.5841 38.2144C15.0632 41.3421 16.2719 44.3131 18.1123 46.8871C19.9527 49.461 22.3731 51.5656 25.1778 53.0306C27.9824 54.4956 31.0926 55.2798 34.2565 55.3199C37.4205 55.3599 40.5494 54.6546 43.3903 53.261C46.2311 51.8675 48.704 49.8248 50.6089 47.2982C52.3129 45.0382 53.5196 42.4478 54.1547 39.6971C54.279 39.159 53.9069 38.6372 53.3633 38.5398C52.8196 38.4423 52.2948 38.8035 52.1676 39.341C51.5902 41.7803 50.5126 44.0772 48.9992 46.0845C47.2847 48.3585 45.0591 50.1969 42.5024 51.4511C39.9457 52.7053 37.1296 53.34 34.282 53.304C31.4345 53.268 28.6353 52.5622 26.1112 51.2437C23.587 49.9252 21.4086 48.0311 19.7522 45.7145C18.0959 43.398 17.0081 40.724 16.5768 37.9091C16.1456 35.0941 16.383 32.2172 17.2698 29.511C18.0527 27.1221 19.3223 24.9254 20.9945 23.058C21.3629 22.6465 21.3596 22.0095 20.9691 21.619Z"/>
</mask>
<path d="M20.9691 21.619C20.5785 21.2284 19.9377 21.2212 19.567 21.6306C17.6723 23.7232 16.2355 26.1935 15.3541 28.8832C14.3687 31.8901 14.1049 35.0867 14.5841 38.2144C15.0632 41.3421 16.2719 44.3131 18.1123 46.8871C19.9527 49.461 22.3731 51.5656 25.1778 53.0306C27.9824 54.4956 31.0926 55.2798 34.2565 55.3199C37.4205 55.3599 40.5494 54.6546 43.3903 53.261C46.2311 51.8675 48.704 49.8248 50.6089 47.2982C52.3129 45.0382 53.5196 42.4478 54.1547 39.6971C54.279 39.159 53.9069 38.6372 53.3633 38.5398C52.8196 38.4423 52.2948 38.8035 52.1676 39.341C51.5902 41.7803 50.5126 44.0772 48.9992 46.0845C47.2847 48.3585 45.0591 50.1969 42.5024 51.4511C39.9457 52.7053 37.1296 53.34 34.282 53.304C31.4345 53.268 28.6353 52.5622 26.1112 51.2437C23.587 49.9252 21.4086 48.0311 19.7522 45.7145C18.0959 43.398 17.0081 40.724 16.5768 37.9091C16.1456 35.0941 16.383 32.2172 17.2698 29.511C18.0527 27.1221 19.3223 24.9254 20.9945 23.058C21.3629 22.6465 21.3596 22.0095 20.9691 21.619Z" stroke="url(#paint1_linear_605_22438)" stroke-width="4" stroke-linecap="round" stroke-linejoin="round" mask="url(#path-4-inside-2_605_22438)"/>
<mask id="path-5-inside-3_605_22438" fill="white">
<path fill-rule="evenodd" clip-rule="evenodd" d="M26.9922 27.4844C24.783 27.4844 22.9922 29.2752 22.9922 31.4844V37.7572C22.9922 39.9664 24.7831 41.7572 26.9922 41.7572H29.8121L33.8633 45.5992C34.2641 45.9792 34.9055 45.9707 35.296 45.5802L39.119 41.7572H42.0322C44.2413 41.7572 46.0322 39.9664 46.0322 37.7572V31.4844C46.0322 29.2752 44.2413 27.4844 42.0322 27.4844H26.9922Z"/>
</mask>
<path fill-rule="evenodd" clip-rule="evenodd" d="M26.9922 27.4844C24.783 27.4844 22.9922 29.2752 22.9922 31.4844V37.7572C22.9922 39.9664 24.7831 41.7572 26.9922 41.7572H29.8121L33.8633 45.5992C34.2641 45.9792 34.9055 45.9707 35.296 45.5802L39.119 41.7572H42.0322C44.2413 41.7572 46.0322 39.9664 46.0322 37.7572V31.4844C46.0322 29.2752 44.2413 27.4844 42.0322 27.4844H26.9922Z" fill="#69FFE5" fill-opacity="0.2"/>
<path d="M29.8121 41.7572L31.1884 40.306L30.6097 39.7572H29.8121V41.7572ZM33.8633 45.5992L35.2396 44.148L35.2396 44.148L33.8633 45.5992ZM35.296 45.5802L36.7102 46.9944L36.7102 46.9944L35.296 45.5802ZM39.119 41.7572V39.7572H38.2906L37.7048 40.343L39.119 41.7572ZM24.9922 31.4844C24.9922 30.3798 25.8876 29.4844 26.9922 29.4844V25.4844C23.6785 25.4844 20.9922 28.1707 20.9922 31.4844H24.9922ZM24.9922 37.7572V31.4844H20.9922V37.7572H24.9922ZM26.9922 39.7572C25.8876 39.7572 24.9922 38.8618 24.9922 37.7572H20.9922C20.9922 41.0709 23.6785 43.7572 26.9922 43.7572V39.7572ZM29.8121 39.7572H26.9922V43.7572H29.8121V39.7572ZM35.2396 44.148L31.1884 40.306L28.4359 43.2084L32.4871 47.0504L35.2396 44.148ZM33.8818 44.166C34.2577 43.7901 34.8538 43.7822 35.2396 44.148L32.4871 47.0504C33.6743 48.1763 35.5533 48.1514 36.7102 46.9944L33.8818 44.166ZM37.7048 40.343L33.8818 44.166L36.7102 46.9944L40.5332 43.1714L37.7048 40.343ZM42.0322 39.7572H39.119V43.7572H42.0322V39.7572ZM44.0322 37.7572C44.0322 38.8618 43.1368 39.7572 42.0322 39.7572V43.7572C45.3459 43.7572 48.0322 41.0709 48.0322 37.7572H44.0322ZM44.0322 31.4844V37.7572H48.0322V31.4844H44.0322ZM42.0322 29.4844C43.1368 29.4844 44.0322 30.3798 44.0322 31.4844H48.0322C48.0322 28.1707 45.3459 25.4844 42.0322 25.4844V29.4844ZM26.9922 29.4844H42.0322V25.4844H26.9922V29.4844Z" fill="url(#paint2_linear_605_22438)" mask="url(#path-5-inside-3_605_22438)"/>
<path d="M33.6329 32.2958C34.0119 31.6009 35.0098 31.6009 35.3888 32.2958L35.6973 32.8616C35.8411 33.1253 36.0959 33.3104 36.3912 33.3657L37.0246 33.4843C37.8027 33.63 38.111 34.5791 37.5672 35.1543L37.1245 35.6225C36.9181 35.8408 36.8208 36.1403 36.8594 36.4382L36.9424 37.0773C37.0442 37.8623 36.2369 38.4488 35.5218 38.1094L34.9397 37.833C34.6683 37.7042 34.3534 37.7042 34.082 37.833L33.4998 38.1094C32.7847 38.4488 31.9775 37.8623 32.0793 37.0773L32.1622 36.4382C32.2009 36.1403 32.1036 35.8408 31.8972 35.6225L31.4545 35.1543C30.9107 34.5791 31.219 33.63 31.9971 33.4843L32.6305 33.3657C32.9258 33.3104 33.1805 33.1253 33.3244 32.8616L33.6329 32.2958Z" fill="url(#paint3_linear_605_22438)"/>
<path d="M69.6168 59.5453L53.9222 50.6028C53.6289 50.4186 53.2617 50.4502 52.9855 50.6542C52.7091 50.8582 52.5858 51.2182 52.6742 51.5438L57.207 68.2386C57.2954 68.5644 57.5585 68.8004 57.9011 68.8406C58.0154 68.8541 58.1502 68.862 58.2534 68.8347C58.4597 68.7801 58.6288 68.67 58.7344 68.4892L62.2956 63.2186C62.4301 63.0195 62.6324 62.876 62.8654 62.8144L69.4152 61.0827C69.7453 60.9954 69.9994 60.7099 70.0403 60.3718C70.0811 60.0336 69.9253 59.7039 69.6169 59.5454L69.6168 59.5453Z" fill="url(#paint4_linear_605_22438)"/>
<defs>
<linearGradient id="paint0_linear_605_22438" x1="20.1985" y1="-3.91691" x2="57.9053" y2="41.9752" gradientUnits="userSpaceOnUse">
<stop stop-color="#FEFFD7"/>
<stop offset="0.557292" stop-color="#69FFE5"/>
<stop offset="1" stop-color="#EEFFD9"/>
</linearGradient>
<linearGradient id="paint1_linear_605_22438" x1="20.1985" y1="-3.91691" x2="57.9053" y2="41.9752" gradientUnits="userSpaceOnUse">
<stop stop-color="#FEFFD7"/>
<stop offset="0.557292" stop-color="#69FFE5"/>
<stop offset="1" stop-color="#EEFFD9"/>
</linearGradient>
<linearGradient id="paint2_linear_605_22438" x1="21.2493" y1="27.4844" x2="46.833" y2="44.6356" gradientUnits="userSpaceOnUse">
<stop offset="0.015625" stop-color="#FEFFD7"/>
<stop offset="0.557292" stop-color="#69FFE5"/>
<stop offset="0.994792" stop-color="#3662FF"/>
</linearGradient>
<linearGradient id="paint3_linear_605_22438" x1="29.2861" y1="30.686" x2="40.6412" y2="36.7636" gradientUnits="userSpaceOnUse">
<stop offset="0.015625" stop-color="#FEFFD7"/>
<stop offset="0.557292" stop-color="#69FFE5"/>
<stop offset="0.994792" stop-color="#3662FF"/>
</linearGradient>
<linearGradient id="paint4_linear_605_22438" x1="51.3919" y1="51.0101" x2="72.8907" y2="53.6918" gradientUnits="userSpaceOnUse">
<stop offset="0.015625" stop-color="#FEFFD7"/>
<stop offset="0.557292" stop-color="#69FFE5"/>
<stop offset="0.994792" stop-color="#3662FF"/>
</linearGradient>
</defs>
</svg>
