<svg width="73" height="73" viewBox="0 0 73 73" fill="none" xmlns="http://www.w3.org/2000/svg">
<path d="M11.5469 62.7314C11.5469 63.836 12.4423 64.7314 13.5469 64.7314L58.5127 64.7314C59.6172 64.7314 60.5127 63.836 60.5127 62.7314L60.5127 57.5202L60.5127 50.6125C60.5127 48.4172 59.728 46.2942 58.3003 44.6266C56.5517 42.5842 53.9974 41.4086 51.3088 41.4086L51.0064 41.4086C48.0959 41.4086 45.334 42.6943 43.4604 44.9216L38.8256 50.4312C37.4616 52.0525 35.161 52.5217 33.2711 51.5638C30.9254 50.3748 28.063 51.4097 27.0198 53.8237L26.1546 55.8258C25.3386 57.7141 23.6905 59.1153 21.6955 59.6168L19.4903 60.1711C16.5522 60.9097 13.4525 59.8753 11.5469 57.5202L11.5469 62.7314Z" fill="white" fill-opacity="0.2"/>
<rect x="11.5508" y="49.5444" width="14.4" height="15.1869" rx="2" fill="#69FFE5" fill-opacity="0.4"/>
<rect x="28.832" y="41.1074" width="14.4" height="23.6236" rx="2" fill="#69FFE5" fill-opacity="0.4"/>
<rect x="46.1094" y="56.9517" width="14.4" height="7.77926" rx="2" fill="#69FFE5" fill-opacity="0.4"/>
<circle cx="35.6328" cy="25.187" r="14" fill="white" fill-opacity="0.2"/>
<circle cx="35.6328" cy="25.187" r="8" fill="#69FFE5" fill-opacity="0.2"/>
<path d="M34.7552 22.5165C35.1342 21.8216 36.1321 21.8216 36.5111 22.5165L36.8638 23.1633C37.0076 23.427 37.2624 23.6121 37.5576 23.6674L38.2818 23.803C39.0598 23.9487 39.3682 24.8978 38.8244 25.4729L38.3182 26.0083C38.1119 26.2266 38.0146 26.5261 38.0532 26.824L38.148 27.5546C38.2499 28.3395 37.4426 28.9261 36.7275 28.5866L36.062 28.2707C35.7906 28.1419 35.4757 28.1419 35.2043 28.2707L34.5388 28.5866C33.8237 28.9261 33.0164 28.3395 33.1182 27.5546L33.213 26.824C33.2517 26.5261 33.1544 26.2266 32.948 26.0083L32.4419 25.4729C31.8981 24.8978 32.2064 23.9487 32.9845 23.803L33.7086 23.6674C34.0039 23.6121 34.2586 23.427 34.4025 23.1633L34.7552 22.5165Z" fill="url(#paint0_linear_605_22441)"/>
<mask id="path-8-inside-1_605_22441" fill="white">
<path d="M46.9084 25.1869C47.3413 25.1869 47.6948 24.8356 47.6667 24.4037C47.5615 22.787 47.1312 21.2053 46.3988 19.7541C45.5485 18.0694 44.3145 16.6078 42.7963 15.4869C41.278 14.366 39.5178 13.6172 37.6574 13.3007C35.7969 12.9842 33.8882 13.1088 32.0847 13.6645C30.2812 14.2202 28.6333 15.1915 27.2737 16.5003C25.914 17.809 24.8806 19.4187 24.2565 21.1997C23.6324 22.9807 23.4351 24.8833 23.6805 26.7545C23.8918 28.3662 24.4265 29.9157 25.2494 31.3113C25.4693 31.6841 25.9592 31.7755 26.317 31.5319C26.6747 31.2883 26.7645 30.8021 26.5482 30.4271C25.8613 29.236 25.414 27.9191 25.2346 26.5507C25.0211 24.9228 25.1928 23.2675 25.7357 21.718C26.2787 20.1685 27.1778 18.7682 28.3606 17.6295C29.5435 16.4909 30.9772 15.6459 32.5462 15.1624C34.1153 14.6789 35.7759 14.5705 37.3945 14.8459C39.0131 15.1213 40.5444 15.7727 41.8653 16.7479C43.1862 17.7231 44.2597 18.9947 44.9995 20.4604C45.6214 21.6924 45.9928 23.0327 46.0955 24.4039C46.1278 24.8355 46.4756 25.1869 46.9084 25.1869Z"/>
</mask>
<path d="M46.9084 25.1869C47.3413 25.1869 47.6948 24.8356 47.6667 24.4037C47.5615 22.787 47.1312 21.2053 46.3988 19.7541C45.5485 18.0694 44.3145 16.6078 42.7963 15.4869C41.278 14.366 39.5178 13.6172 37.6574 13.3007C35.7969 12.9842 33.8882 13.1088 32.0847 13.6645C30.2812 14.2202 28.6333 15.1915 27.2737 16.5003C25.914 17.809 24.8806 19.4187 24.2565 21.1997C23.6324 22.9807 23.4351 24.8833 23.6805 26.7545C23.8918 28.3662 24.4265 29.9157 25.2494 31.3113C25.4693 31.6841 25.9592 31.7755 26.317 31.5319C26.6747 31.2883 26.7645 30.8021 26.5482 30.4271C25.8613 29.236 25.414 27.9191 25.2346 26.5507C25.0211 24.9228 25.1928 23.2675 25.7357 21.718C26.2787 20.1685 27.1778 18.7682 28.3606 17.6295C29.5435 16.4909 30.9772 15.6459 32.5462 15.1624C34.1153 14.6789 35.7759 14.5705 37.3945 14.8459C39.0131 15.1213 40.5444 15.7727 41.8653 16.7479C43.1862 17.7231 44.2597 18.9947 44.9995 20.4604C45.6214 21.6924 45.9928 23.0327 46.0955 24.4039C46.1278 24.8355 46.4756 25.1869 46.9084 25.1869Z" stroke="url(#paint1_linear_605_22441)" stroke-width="4" stroke-linecap="round" mask="url(#path-8-inside-1_605_22441)"/>
<mask id="path-9-inside-2_605_22441" fill="white">
<path d="M31.5549 35.6974C31.3983 36.1009 31.598 36.5576 32.0109 36.6876C34.6242 37.5103 37.4488 37.4205 40.0155 36.4185C42.5822 35.4166 44.7207 33.5691 46.0855 31.1935C46.3011 30.8182 46.1387 30.3471 45.7502 30.1563C45.3617 29.9655 44.8945 30.1276 44.6753 30.5008C43.4859 32.5251 41.6467 34.0992 39.4455 34.9584C37.2443 35.8177 34.8251 35.9059 32.5789 35.2226C32.1648 35.0966 31.7114 35.2939 31.5549 35.6974Z"/>
</mask>
<path d="M31.5549 35.6974C31.3983 36.1009 31.598 36.5576 32.0109 36.6876C34.6242 37.5103 37.4488 37.4205 40.0155 36.4185C42.5822 35.4166 44.7207 33.5691 46.0855 31.1935C46.3011 30.8182 46.1387 30.3471 45.7502 30.1563C45.3617 29.9655 44.8945 30.1276 44.6753 30.5008C43.4859 32.5251 41.6467 34.0992 39.4455 34.9584C37.2443 35.8177 34.8251 35.9059 32.5789 35.2226C32.1648 35.0966 31.7114 35.2939 31.5549 35.6974Z" stroke="url(#paint2_linear_605_22441)" stroke-width="4" stroke-linecap="round" mask="url(#path-9-inside-2_605_22441)"/>
<defs>
<linearGradient id="paint0_linear_605_22441" x1="30.2451" y1="20.9067" x2="41.9551" y2="27.1742" gradientUnits="userSpaceOnUse">
<stop offset="0.015625" stop-color="#FEFFD7"/>
<stop offset="0.557292" stop-color="#69FFE5"/>
<stop offset="0.994792" stop-color="#3662FF"/>
</linearGradient>
<linearGradient id="paint1_linear_605_22441" x1="27.075" y1="1.81544" x2="49.6261" y2="29.262" gradientUnits="userSpaceOnUse">
<stop stop-color="#FEFFD7"/>
<stop offset="0.557292" stop-color="#69FFE5"/>
<stop offset="1" stop-color="#EEFFD9"/>
</linearGradient>
<linearGradient id="paint2_linear_605_22441" x1="27.0711" y1="1.81544" x2="49.6222" y2="29.262" gradientUnits="userSpaceOnUse">
<stop stop-color="#FEFFD7"/>
<stop offset="0.557292" stop-color="#69FFE5"/>
<stop offset="1" stop-color="#EEFFD9"/>
</linearGradient>
</defs>
</svg>
