<svg width="769" height="385" viewBox="0 0 769 385" fill="none" xmlns="http://www.w3.org/2000/svg">
<path fill-rule="evenodd" clip-rule="evenodd" d="M738.295 147.44C757.415 101.28 767.318 51.8284 767.448 1.8721L1.45052 1.87207C1.58094 51.8284 11.4834 101.28 30.6033 147.44C49.8509 193.908 78.0625 236.129 113.627 271.694C149.192 307.259 191.414 335.47 237.881 354.718C284.349 373.965 334.153 383.872 384.449 383.872C434.745 383.872 484.549 373.966 531.017 354.718C577.485 335.47 619.706 307.259 655.271 271.694C690.836 236.129 719.048 193.908 738.295 147.44ZM0.450521 1.87207C0.449653 1.53876 0.449219 1.20541 0.449219 0.87207L768.449 0.872101C768.449 1.20544 768.449 1.53879 768.448 1.8721C768.318 51.9597 758.389 101.542 739.219 147.823C719.921 194.412 691.636 236.743 655.978 272.401C620.32 308.059 577.989 336.344 531.4 355.642C484.811 374.94 434.877 384.872 384.449 384.872C334.022 384.872 284.088 374.94 237.499 355.642C190.91 336.344 148.578 308.059 112.92 272.401C77.2625 236.743 48.9773 194.412 29.6795 147.823C10.5092 101.541 0.580942 51.9597 0.450521 1.87207Z" fill="url(#paint0_linear_741_74427)"/>
<defs>
<linearGradient id="paint0_linear_741_74427" x1="256.318" y1="-304.188" x2="-167.477" y2="-159.779" gradientUnits="userSpaceOnUse">
<stop stop-opacity="0"/>
<stop offset="0.510417" stop-color="#8DFDE9"/>
<stop offset="0.973958" stop-opacity="0"/>
</linearGradient>
</defs>
</svg>
