<svg width="102" height="102" viewBox="0 0 102 102" fill="none" xmlns="http://www.w3.org/2000/svg">
<g clip-path="url(#clip0_499_20303)">
<g filter="url(#filter0_bii_499_20303)">
<rect x="12.3516" y="0.724121" width="90.8408" height="90.8408" rx="24" transform="rotate(7.57168 12.3516 0.724121)" fill="white" fill-opacity="0.01"/>
</g>
<g filter="url(#filter1_f_499_20303)">
<path d="M74.0571 100.566L16.344 92.8948C20.2891 90.3645 31.8496 85.7919 46.5305 87.7433C61.2115 89.6948 70.9986 97.1051 74.0571 100.566Z" fill="url(#paint0_linear_499_20303)"/>
</g>
<g filter="url(#filter2_f_499_20303)">
<path fill-rule="evenodd" clip-rule="evenodd" d="M40.2129 34.1412L37.3803 39.0771L34.5443 60.4128L42.1478 61.4235L41.635 65.2819L45.9109 65.8503L50.4634 62.5288L56.643 63.3502L66.0147 56.5105L68.4885 37.8998L40.2129 34.1412ZM63.3435 54.7711L57.9872 58.6779L50.385 57.6674L45.8326 60.9889L46.3453 57.1318L39.9306 56.2792L42.4651 37.2122L65.2745 40.2441L63.3435 54.7711ZM59.8275 44.8339L58.7726 52.7693L55.922 52.3904L56.9768 44.455L59.8288 44.8341L59.8275 44.8339ZM52.2253 43.8234L51.1705 51.7588L48.3198 51.3798L49.3746 43.4445L52.2253 43.8234Z" fill="url(#paint1_linear_499_20303)"/>
</g>
<path fill-rule="evenodd" clip-rule="evenodd" d="M40.2129 34.1412L37.3803 39.0771L34.5443 60.4128L42.1478 61.4235L41.635 65.2819L45.9109 65.8503L50.4634 62.5288L56.643 63.3502L66.0147 56.5105L68.4885 37.8998L40.2129 34.1412ZM63.3435 54.7711L57.9872 58.6779L50.385 57.6674L45.8326 60.9889L46.3453 57.1318L39.9306 56.2792L42.4651 37.2122L65.2745 40.2441L63.3435 54.7711ZM59.8275 44.8339L58.7726 52.7693L55.922 52.3904L56.9768 44.455L59.8288 44.8341L59.8275 44.8339ZM52.2253 43.8234L51.1705 51.7588L48.3198 51.3798L49.3746 43.4445L52.2253 43.8234Z" fill="url(#paint2_linear_499_20303)"/>
</g>
<defs>
<filter id="filter0_bii_499_20303" x="-9.05535" y="-8.71294" width="120.892" height="120.893" filterUnits="userSpaceOnUse" color-interpolation-filters="sRGB">
<feFlood flood-opacity="0" result="BackgroundImageFix"/>
<feGaussianBlur in="BackgroundImageFix" stdDeviation="6.19369"/>
<feComposite in2="SourceAlpha" operator="in" result="effect1_backgroundBlur_499_20303"/>
<feBlend mode="normal" in="SourceGraphic" in2="effect1_backgroundBlur_499_20303" result="shape"/>
<feColorMatrix in="SourceAlpha" type="matrix" values="0 0 0 0 0 0 0 0 0 0 0 0 0 0 0 0 0 0 127 0" result="hardAlpha"/>
<feOffset dx="4.12913" dy="4.12913"/>
<feGaussianBlur stdDeviation="1.03228"/>
<feComposite in2="hardAlpha" operator="arithmetic" k2="-1" k3="1"/>
<feColorMatrix type="matrix" values="0 0 0 0 1 0 0 0 0 1 0 0 0 0 1 0 0 0 0.1 0"/>
<feBlend mode="normal" in2="shape" result="effect2_innerShadow_499_20303"/>
<feColorMatrix in="SourceAlpha" type="matrix" values="0 0 0 0 0 0 0 0 0 0 0 0 0 0 0 0 0 0 127 0" result="hardAlpha"/>
<feOffset dy="-2.06456"/>
<feGaussianBlur stdDeviation="5.16141"/>
<feComposite in2="hardAlpha" operator="arithmetic" k2="-1" k3="1"/>
<feColorMatrix type="matrix" values="0 0 0 0 0.681333 0 0 0 0 0.00416666 0 0 0 0 1 0 0 0 0.35 0"/>
<feBlend mode="normal" in2="effect2_innerShadow_499_20303" result="effect3_innerShadow_499_20303"/>
</filter>
<filter id="filter1_f_499_20303" x="-4.30188" y="66.626" width="99.0042" height="54.5859" filterUnits="userSpaceOnUse" color-interpolation-filters="sRGB">
<feFlood flood-opacity="0" result="BackgroundImageFix"/>
<feBlend mode="normal" in="SourceGraphic" in2="BackgroundImageFix" result="shape"/>
<feGaussianBlur stdDeviation="10.3228" result="effect1_foregroundBlur_499_20303"/>
</filter>
<filter id="filter2_f_499_20303" x="13.8993" y="13.4956" width="75.2346" height="73.0004" filterUnits="userSpaceOnUse" color-interpolation-filters="sRGB">
<feFlood flood-opacity="0" result="BackgroundImageFix"/>
<feBlend mode="normal" in="SourceGraphic" in2="BackgroundImageFix" result="shape"/>
<feGaussianBlur stdDeviation="10.3228" result="effect1_foregroundBlur_499_20303"/>
</filter>
<linearGradient id="paint0_linear_499_20303" x1="21.445" y1="88.9908" x2="26.8223" y2="77.6191" gradientUnits="userSpaceOnUse">
<stop stop-color="#6D08F5"/>
<stop offset="1" stop-color="#B944DF"/>
</linearGradient>
<linearGradient id="paint1_linear_499_20303" x1="53.2814" y1="35.8783" x2="49.2385" y2="66.2926" gradientUnits="userSpaceOnUse">
<stop stop-color="#C049DD"/>
<stop offset="1" stop-color="#6400F8"/>
</linearGradient>
<linearGradient id="paint2_linear_499_20303" x1="53.2814" y1="35.8783" x2="49.2385" y2="66.2926" gradientUnits="userSpaceOnUse">
<stop stop-color="#C049DD"/>
<stop offset="1" stop-color="#6400F8"/>
</linearGradient>
<clipPath id="clip0_499_20303">
<rect width="90" height="90" fill="white" transform="translate(12.3516 0.724121) rotate(7.57168)"/>
</clipPath>
</defs>
</svg>
