<svg width="125" height="125" viewBox="0 0 125 125" fill="none" xmlns="http://www.w3.org/2000/svg">
<g clip-path="url(#clip0_499_20310)">
<g filter="url(#filter0_bii_499_20310)">
<rect width="90.2035" height="90.2036" rx="24" transform="matrix(0.848321 -0.529482 0.52948 0.848322 0.671875 47.8883)" fill="white" fill-opacity="0.01"/>
</g>
<g filter="url(#filter1_f_499_20310)">
<path d="M111.042 85.3326L61.9988 115.943C63.4201 111.512 69.3818 100.702 81.8573 92.9152C94.3329 85.1286 106.512 84.6157 111.042 85.3326Z" fill="url(#paint0_linear_499_20310)"/>
</g>
<g filter="url(#filter2_f_499_20310)">
<path fill-rule="evenodd" clip-rule="evenodd" d="M47.7237 51.4368C49.2513 50.3827 49.7428 50.0537 53.7492 47.553C57.7556 45.0524 58.268 44.7568 59.8838 43.8471C61.4996 42.9373 62.7288 42.5185 63.8941 42.2961C65.1088 42.0541 66.3628 42.0781 67.5689 42.3687C68.7792 42.6362 69.9142 43.1649 70.8985 43.9181C71.8491 44.6291 72.768 45.5461 73.8195 47.0697C74.8753 48.6 75.2043 49.0914 77.7041 53.0965C80.2047 57.1029 80.5003 57.6153 81.4109 59.2325C82.319 60.8456 82.7378 62.0748 82.9589 63.241C83.2031 64.4563 83.1796 65.7102 82.8898 66.9155C82.621 68.1266 82.0908 69.2624 81.339 70.2459C80.628 71.1964 79.711 72.1153 78.1874 73.1669C76.6585 74.2218 76.1671 74.5509 72.1607 77.0515C68.1542 79.5521 67.6419 79.8477 66.0247 80.7583C64.4116 81.6664 63.1824 82.0852 62.0162 82.3063C60.8009 82.5505 59.547 82.5269 58.3418 82.2372C57.1317 81.969 55.9947 81.44 55.01 80.6872C54.0608 79.9754 53.1419 79.0584 52.0903 77.5348C51.0346 76.0045 50.7055 75.5131 48.2057 71.508C45.7051 67.5016 45.4096 66.9892 44.4998 65.3734C43.59 63.7576 43.1713 62.5284 42.9488 61.3631C42.7056 60.1474 42.7304 58.8933 43.0214 57.6882C43.2893 56.4786 43.8178 55.3419 44.57 54.3573C45.2818 53.4081 46.1988 52.4892 47.7224 51.4376L47.7237 51.4368ZM61.4215 46.5764C59.8217 47.4762 59.3459 47.7526 55.4079 50.2106C51.4699 52.6685 51.0125 52.9745 49.5014 54.0164C48.1037 54.98 47.4732 55.7071 47.0793 56.2343C46.5588 56.9318 46.2651 57.5567 46.0711 58.3951C45.8789 59.1766 45.864 59.9912 46.0275 60.7792C46.1498 61.4258 46.3969 62.356 47.2291 63.8357C48.1288 65.4355 48.4053 65.9113 50.8633 69.8493C53.3212 73.7874 53.6272 74.2448 54.669 75.7558C55.6327 77.1535 56.3598 77.7841 56.887 78.1779C57.5221 78.6702 58.2613 79.0156 59.0478 79.1862C59.8292 79.3785 60.645 79.3929 61.4319 79.2297C62.0785 79.1074 63.0086 78.8604 64.4884 78.0281C66.0881 77.1284 66.5626 76.8527 70.5019 74.394C74.4413 71.9352 74.8974 71.63 76.4084 70.5882C77.8061 69.6245 78.4367 68.8974 78.8306 68.3702C79.351 67.6728 79.6448 67.0478 79.8388 66.2094C80.0311 65.428 80.0455 64.6122 79.8823 63.8253C79.7601 63.1787 79.513 62.2485 78.6807 60.7688C77.781 59.1691 77.5045 58.6933 75.0466 54.7552C72.5886 50.8172 72.2827 50.3598 71.2408 48.8487C70.2771 47.451 69.5501 46.8205 69.0229 46.4266C68.3254 45.9061 67.7005 45.6124 66.8621 45.4184C66.0806 45.2262 65.266 45.2113 64.478 45.3748C63.8314 45.4971 62.9012 45.7441 61.4215 46.5764ZM63.9089 68.0249C65.2344 67.8062 66.4428 67.1341 67.3278 66.1234C68.2127 65.1127 68.7194 63.8261 68.7611 62.4834C68.8029 61.1407 68.3772 59.8251 67.5567 58.7613C66.7363 57.6976 65.572 56.9517 64.2627 56.6511C63.4271 56.458 62.5592 56.4526 61.7213 56.6352C60.8835 56.8178 60.0965 57.1839 59.4171 57.7072C58.7377 58.2305 58.1828 58.8979 57.7923 59.6614C57.4018 60.4248 57.1854 61.2654 57.1587 62.1225C57.1321 62.9797 57.2958 63.832 57.6381 64.6183C57.9804 65.4046 58.4928 66.1052 59.1383 66.6697C59.7839 67.2341 60.5466 67.6485 61.3715 67.8828C62.1964 68.1171 63.063 68.1657 63.9089 68.0249ZM54.2484 60.2875C54.513 59.1441 55.0002 58.0641 55.6822 57.109C56.3642 56.1539 57.2276 55.3425 58.2232 54.7211C59.2187 54.0997 60.3269 53.6805 61.4845 53.4874C62.6421 53.2943 63.8264 53.3311 64.9697 53.5957C66.1131 53.8603 67.1931 54.3475 68.1482 55.0295C69.1033 55.7115 69.9147 56.5749 70.536 57.5705C71.1574 58.5661 71.5766 59.6743 71.7697 60.8319C71.9628 61.9894 71.926 63.1737 71.6614 64.3171C71.1271 66.6262 69.6973 68.6285 67.6867 69.8834C65.6761 71.1384 63.2492 71.5432 60.9401 71.0088C58.631 70.4745 56.6287 69.0447 55.3738 67.034C54.1189 65.0234 53.714 62.5966 54.2484 60.2875ZM68.1903 50.0689C68.2621 49.7955 68.2782 49.5104 68.2378 49.2306C68.1974 48.9508 68.1013 48.682 67.9551 48.44C67.8089 48.198 67.6157 47.9879 67.3868 47.8219C67.158 47.6559 66.8981 47.5376 66.6227 47.4739C66.3473 47.4101 66.0619 47.4023 65.7834 47.4508C65.5049 47.4994 65.239 47.6033 65.0013 47.7565C64.7637 47.9096 64.5593 48.1089 64.4001 48.3425C64.2408 48.5761 64.1301 48.8393 64.0744 49.1165C63.9661 49.6555 64.0722 50.2155 64.3701 50.6776C64.6679 51.1397 65.1342 51.4676 65.6698 51.5915C66.2055 51.7155 66.7683 51.6258 67.2389 51.3415C67.7095 51.0572 68.0508 50.6007 68.1903 50.0689Z" fill="url(#paint1_linear_499_20310)"/>
</g>
<path d="M75.0981 42.8982C74.4327 42.2913 73.6152 41.8762 72.7325 41.6969C71.824 41.5112 70.8831 41.5601 69.9986 41.8388C66.6788 42.8672 55.2566 49.9963 55.2566 49.9963C50.4611 52.9143 45.8491 56.1238 41.4468 59.6068C40.8169 60.2935 40.3664 61.1251 40.1354 62.0277C39.9109 62.9185 39.9198 63.8386 40.1628 64.7011C41.3681 67.7688 42.8622 70.715 44.6251 73.4998C46.3504 76.3047 48.3395 78.9407 50.5691 81.3738C51.2307 81.9708 52.0499 82.3809 52.9474 82.565C53.8449 82.7491 54.7878 82.6983 55.6868 82.4218C59.0436 81.3682 70.4096 74.2741 70.4096 74.2741C75.2113 71.3525 79.8293 68.1392 84.2376 64.6524C84.8766 63.9802 85.3338 63.1564 85.5661 62.2587C85.7935 61.3725 85.777 60.4572 85.5247 59.6068C84.3334 56.5318 82.8452 53.5803 81.0812 50.7942C79.3672 47.9603 77.3616 45.3135 75.0972 42.8966L75.0981 42.8982ZM62.4446 69.5972L55.96 59.2078L68.7061 58.4717L62.4446 69.5972Z" fill="url(#paint2_linear_499_20310)"/>
</g>
<defs>
<filter id="filter0_bii_499_20310" x="-2.56415" y="-3.1092" width="130.755" height="130.756" filterUnits="userSpaceOnUse" color-interpolation-filters="sRGB">
<feFlood flood-opacity="0" result="BackgroundImageFix"/>
<feGaussianBlur in="BackgroundImageFix" stdDeviation="6.15024"/>
<feComposite in2="SourceAlpha" operator="in" result="effect1_backgroundBlur_499_20310"/>
<feBlend mode="normal" in="SourceGraphic" in2="effect1_backgroundBlur_499_20310" result="shape"/>
<feColorMatrix in="SourceAlpha" type="matrix" values="0 0 0 0 0 0 0 0 0 0 0 0 0 0 0 0 0 0 127 0" result="hardAlpha"/>
<feOffset dx="4.10016" dy="4.10016"/>
<feGaussianBlur stdDeviation="1.02504"/>
<feComposite in2="hardAlpha" operator="arithmetic" k2="-1" k3="1"/>
<feColorMatrix type="matrix" values="0 0 0 0 1 0 0 0 0 1 0 0 0 0 1 0 0 0 0.1 0"/>
<feBlend mode="normal" in2="shape" result="effect2_innerShadow_499_20310"/>
<feColorMatrix in="SourceAlpha" type="matrix" values="0 0 0 0 0 0 0 0 0 0 0 0 0 0 0 0 0 0 127 0" result="hardAlpha"/>
<feOffset dy="-2.05008"/>
<feGaussianBlur stdDeviation="5.1252"/>
<feComposite in2="hardAlpha" operator="arithmetic" k2="-1" k3="1"/>
<feColorMatrix type="matrix" values="0 0 0 0 1 0 0 0 0 0 0 0 0 0 0.3 0 0 0 0.35 0"/>
<feBlend mode="normal" in2="effect2_innerShadow_499_20310" result="effect3_innerShadow_499_20310"/>
</filter>
<filter id="filter1_f_499_20310" x="41.4972" y="64.5975" width="90.0465" height="71.8466" filterUnits="userSpaceOnUse" color-interpolation-filters="sRGB">
<feFlood flood-opacity="0" result="BackgroundImageFix"/>
<feBlend mode="normal" in="SourceGraphic" in2="BackgroundImageFix" result="shape"/>
<feGaussianBlur stdDeviation="10.2504" result="effect1_foregroundBlur_499_20310"/>
</filter>
<filter id="filter2_f_499_20310" x="22.2824" y="21.6302" width="81.3454" height="81.3441" filterUnits="userSpaceOnUse" color-interpolation-filters="sRGB">
<feFlood flood-opacity="0" result="BackgroundImageFix"/>
<feBlend mode="normal" in="SourceGraphic" in2="BackgroundImageFix" result="shape"/>
<feGaussianBlur stdDeviation="10.2504" result="effect1_foregroundBlur_499_20310"/>
</filter>
<linearGradient id="paint0_linear_499_20310" x1="63.4368" y1="109.729" x2="60.3655" y2="97.6218" gradientUnits="userSpaceOnUse">
<stop stop-color="#FF0000"/>
<stop offset="1" stop-color="#FF004D"/>
</linearGradient>
<linearGradient id="paint1_linear_499_20310" x1="53.7492" y1="47.553" x2="72.1607" y2="77.0515" gradientUnits="userSpaceOnUse">
<stop stop-color="#FFA800"/>
<stop offset="1" stop-color="#AE01FF"/>
</linearGradient>
<linearGradient id="paint2_linear_499_20310" x1="71.0086" y1="41.6009" x2="54.5926" y2="81.7456" gradientUnits="userSpaceOnUse">
<stop stop-color="#E90018"/>
<stop offset="1" stop-color="#CF1178"/>
</linearGradient>
<clipPath id="clip0_499_20310">
<rect width="89.9999" height="90" fill="white" transform="matrix(0.848321 -0.529482 0.52948 0.848322 0.671875 47.8882)"/>
</clipPath>
</defs>
</svg>
