<svg width="1280" height="641" viewBox="0 0 1280 641" fill="none" xmlns="http://www.w3.org/2000/svg">
<mask id="path-1-inside-1_501_28704" fill="white">
<path d="M1280 0.198669C1280 84.2447 1263.45 167.468 1231.28 245.116C1199.12 322.764 1151.98 393.318 1092.55 452.747C1033.12 512.177 962.566 559.319 884.917 591.482C807.269 623.645 724.046 640.199 640 640.199C555.954 640.199 472.731 623.645 395.083 591.482C317.434 559.319 246.881 512.176 187.452 452.747C128.022 393.317 80.8801 322.764 48.7171 245.116C16.5541 167.468 -7.34753e-06 84.2446 0 0.198608L640 0.198669H1280Z"/>
</mask>
<path d="M1280 0.198669C1280 84.2447 1263.45 167.468 1231.28 245.116C1199.12 322.764 1151.98 393.318 1092.55 452.747C1033.12 512.177 962.566 559.319 884.917 591.482C807.269 623.645 724.046 640.199 640 640.199C555.954 640.199 472.731 623.645 395.083 591.482C317.434 559.319 246.881 512.176 187.452 452.747C128.022 393.317 80.8801 322.764 48.7171 245.116C16.5541 167.468 -7.34753e-06 84.2446 0 0.198608L640 0.198669H1280Z" stroke="url(#paint0_linear_501_28704)" stroke-width="2" mask="url(#path-1-inside-1_501_28704)"/>
<defs>
<linearGradient id="paint0_linear_501_28704" x1="426.448" y1="-508.234" x2="-279.877" y2="-267.553" gradientUnits="userSpaceOnUse">
<stop stop-opacity="0"/>
<stop offset="0.510417" stop-color="#8DFDE9"/>
<stop offset="0.973958" stop-opacity="0"/>
</linearGradient>
</defs>
</svg>
