<svg width="21" height="20" viewBox="0 0 21 20" fill="none" xmlns="http://www.w3.org/2000/svg">
<path d="M8.86125 8.86C8.91125 8.53 9.02125 8.24 9.16125 8C9.46125 7.44 9.97125 7.15 10.6613 7.14C11.1112 7.14 11.5212 7.34 11.8112 7.63C12.0912 7.94 12.2812 8.37 12.2812 8.8H14.0813C14.0612 8.33 13.9712 7.9 13.7812 7.5C13.6313 7.12 13.4012 6.78 13.1012 6.5C11.6512 5.16 8.96125 5.35 7.73125 6.87C6.44125 8.54 6.41125 11.46 7.72125 13.13C8.93125 14.62 11.5812 14.83 13.0212 13.5C13.3313 13.25 13.5813 12.94 13.7812 12.58C13.9412 12.22 14.0512 11.84 14.0612 11.43H12.2812C12.2812 11.64 12.2113 11.83 12.1213 12C12.0312 12.19 11.9113 12.34 11.7812 12.47C11.4513 12.73 11.0612 12.87 10.6412 12.87C10.2812 12.86 9.98125 12.79 9.75125 12.64C9.49201 12.4942 9.2855 12.2702 9.16125 12C8.66125 11.1 8.74125 9.85 8.86125 8.86ZM10.7812 0C5.28125 0 0.78125 4.5 0.78125 10C1.31125 23.27 20.2812 23.26 20.7812 10C20.7812 4.5 16.2812 0 10.7812 0ZM10.7812 18C6.37125 18 2.78125 14.41 2.78125 10C3.22125 -0.61 18.3412 -0.61 18.7812 10C18.7812 14.41 15.1912 18 10.7812 18Z" fill="white"/>
</svg>
