<svg width="101" height="101" viewBox="0 0 101 101" fill="none" xmlns="http://www.w3.org/2000/svg">
<circle cx="50.9648" cy="50.5396" r="41" fill="white" fill-opacity="0.1"/>
<circle cx="50.9648" cy="50.5396" r="33" fill="#69FFE5" fill-opacity="0.2"/>
<mask id="path-3-inside-1_548_28479" fill="white">
<path d="M77.9648 50.5396C78.5171 50.5396 78.9667 50.0917 78.947 49.5397C78.7757 44.7451 77.3748 40.0687 74.8713 35.9628C72.194 31.572 68.3593 28.0033 63.7876 25.6482C59.2159 23.2931 54.0839 22.2426 48.9546 22.6118C44.1581 22.9571 39.5371 24.5313 35.5338 27.1754C35.0729 27.4798 34.9693 28.1059 35.2899 28.5556L35.7543 29.2069C36.075 29.6566 36.6984 29.7594 37.1605 29.4569C40.7441 27.1103 44.8721 25.7129 49.1556 25.4046C53.772 25.0723 58.3908 26.0178 62.5053 28.1374C66.6198 30.257 70.0711 33.4688 72.4806 37.4205C74.7164 41.0872 75.9751 45.2595 76.145 49.5398C76.1669 50.0916 76.6126 50.5396 77.1648 50.5396H77.9648Z"/>
</mask>
<path d="M77.9648 50.5396C78.5171 50.5396 78.9667 50.0917 78.947 49.5397C78.7757 44.7451 77.3748 40.0687 74.8713 35.9628C72.194 31.572 68.3593 28.0033 63.7876 25.6482C59.2159 23.2931 54.0839 22.2426 48.9546 22.6118C44.1581 22.9571 39.5371 24.5313 35.5338 27.1754C35.0729 27.4798 34.9693 28.1059 35.2899 28.5556L35.7543 29.2069C36.075 29.6566 36.6984 29.7594 37.1605 29.4569C40.7441 27.1103 44.8721 25.7129 49.1556 25.4046C53.772 25.0723 58.3908 26.0178 62.5053 28.1374C66.6198 30.257 70.0711 33.4688 72.4806 37.4205C74.7164 41.0872 75.9751 45.2595 76.145 49.5398C76.1669 50.0916 76.6126 50.5396 77.1648 50.5396H77.9648Z" stroke="url(#paint0_linear_548_28479)" stroke-width="4" stroke-linecap="round" mask="url(#path-3-inside-1_548_28479)"/>
<mask id="path-4-inside-2_548_28479" fill="white">
<path d="M31.873 31.4477C31.4824 31.0571 30.8478 31.056 30.4715 31.4602C27.7097 34.4267 25.6219 37.9606 24.3572 41.8197C22.9886 45.9959 22.6222 50.4356 23.2878 54.7797C23.9533 59.1238 25.632 63.2502 28.1881 66.8251C30.7442 70.4 34.1059 73.3231 38.0013 75.3578C41.8966 77.3925 46.2162 78.4817 50.6106 78.5373C55.005 78.5929 59.3508 77.6133 63.2964 75.6778C67.242 73.7423 70.6765 70.9053 73.3223 67.3962C75.7671 64.1535 77.4749 60.4211 78.3319 56.4596C78.4486 55.9198 78.0851 55.3996 77.5415 55.3022L76.754 55.1611C76.2104 55.0637 75.6927 55.426 75.5738 55.9653C74.7958 59.4943 73.2668 62.8188 71.0865 65.7105C68.7054 68.8687 65.6142 71.4221 62.0632 73.164C58.5122 74.906 54.601 75.7876 50.646 75.7375C46.6911 75.6875 42.8034 74.7072 39.2976 72.876C35.7918 71.0447 32.7663 68.414 30.4658 65.1966C28.1653 61.9791 26.6544 58.2654 26.0555 54.3557C25.4565 50.446 25.7862 46.4503 27.018 42.6917C28.1458 39.2502 30.0009 36.0961 32.4528 33.4414C32.8276 33.0357 32.8292 32.4039 32.4386 32.0134L31.873 31.4477Z"/>
</mask>
<path d="M31.873 31.4477C31.4824 31.0571 30.8478 31.056 30.4715 31.4602C27.7097 34.4267 25.6219 37.9606 24.3572 41.8197C22.9886 45.9959 22.6222 50.4356 23.2878 54.7797C23.9533 59.1238 25.632 63.2502 28.1881 66.8251C30.7442 70.4 34.1059 73.3231 38.0013 75.3578C41.8966 77.3925 46.2162 78.4817 50.6106 78.5373C55.005 78.5929 59.3508 77.6133 63.2964 75.6778C67.242 73.7423 70.6765 70.9053 73.3223 67.3962C75.7671 64.1535 77.4749 60.4211 78.3319 56.4596C78.4486 55.9198 78.0851 55.3996 77.5415 55.3022L76.754 55.1611C76.2104 55.0637 75.6927 55.426 75.5738 55.9653C74.7958 59.4943 73.2668 62.8188 71.0865 65.7105C68.7054 68.8687 65.6142 71.4221 62.0632 73.164C58.5122 74.906 54.601 75.7876 50.646 75.7375C46.6911 75.6875 42.8034 74.7072 39.2976 72.876C35.7918 71.0447 32.7663 68.414 30.4658 65.1966C28.1653 61.9791 26.6544 58.2654 26.0555 54.3557C25.4565 50.446 25.7862 46.4503 27.018 42.6917C28.1458 39.2502 30.0009 36.0961 32.4528 33.4414C32.8276 33.0357 32.8292 32.4039 32.4386 32.0134L31.873 31.4477Z" stroke="url(#paint1_linear_548_28479)" stroke-width="4" stroke-linecap="round" stroke-linejoin="round" mask="url(#path-4-inside-2_548_28479)"/>
<mask id="path-5-inside-3_548_28479" fill="white">
<path fill-rule="evenodd" clip-rule="evenodd" d="M40.9648 37.6862C37.6511 37.6862 34.9648 40.3725 34.9648 43.6862V51.5095C34.9648 54.8233 37.6511 57.5095 40.9648 57.5095H44.4378L50.3466 63.1132C50.7473 63.4932 51.3888 63.4847 51.7793 63.0942L57.364 57.5095H60.9648C64.2786 57.5095 66.9648 54.8232 66.9648 51.5095V43.6862C66.9648 40.3724 64.2786 37.6862 60.9648 37.6862H40.9648Z"/>
</mask>
<path fill-rule="evenodd" clip-rule="evenodd" d="M40.9648 37.6862C37.6511 37.6862 34.9648 40.3725 34.9648 43.6862V51.5095C34.9648 54.8233 37.6511 57.5095 40.9648 57.5095H44.4378L50.3466 63.1132C50.7473 63.4932 51.3888 63.4847 51.7793 63.0942L57.364 57.5095H60.9648C64.2786 57.5095 66.9648 54.8232 66.9648 51.5095V43.6862C66.9648 40.3724 64.2786 37.6862 60.9648 37.6862H40.9648Z" fill="#69FFE5" fill-opacity="0.2"/>
<path d="M44.4378 57.5095L45.814 56.0584L45.2353 55.5095H44.4378V57.5095ZM50.3466 63.1132L48.9703 64.5644L48.9703 64.5644L50.3466 63.1132ZM51.7793 63.0942L50.3651 61.68L50.3651 61.68L51.7793 63.0942ZM57.364 57.5095V55.5095H56.5355L55.9497 56.0953L57.364 57.5095ZM36.9648 43.6862C36.9648 41.477 38.7557 39.6862 40.9648 39.6862V35.6862C36.5466 35.6862 32.9648 39.2679 32.9648 43.6862H36.9648ZM36.9648 51.5095V43.6862H32.9648V51.5095H36.9648ZM40.9648 55.5095C38.7557 55.5095 36.9648 53.7187 36.9648 51.5095H32.9648C32.9648 55.9278 36.5466 59.5095 40.9648 59.5095V55.5095ZM44.4378 55.5095H40.9648V59.5095H44.4378V55.5095ZM51.7228 61.662L45.814 56.0584L43.0616 58.9607L48.9703 64.5644L51.7228 61.662ZM50.3651 61.68C50.741 61.3041 51.3371 61.2962 51.7228 61.662L48.9703 64.5644C50.1576 65.6903 52.0365 65.6654 53.1935 64.5084L50.3651 61.68ZM55.9497 56.0953L50.3651 61.68L53.1935 64.5084L58.7782 58.9238L55.9497 56.0953ZM60.9648 55.5095H57.364V59.5095H60.9648V55.5095ZM64.9648 51.5095C64.9648 53.7187 63.174 55.5095 60.9648 55.5095V59.5095C65.3831 59.5095 68.9648 55.9278 68.9648 51.5095H64.9648ZM64.9648 43.6862V51.5095H68.9648V43.6862H64.9648ZM60.9648 39.6862C63.174 39.6862 64.9648 41.477 64.9648 43.6862H68.9648C68.9648 39.2679 65.3831 35.6862 60.9648 35.6862V39.6862ZM40.9648 39.6862H60.9648V35.6862H40.9648V39.6862Z" fill="url(#paint2_linear_548_28479)" mask="url(#path-5-inside-3_548_28479)"/>
<path d="M50.0853 43.7427C50.4643 43.0478 51.4621 43.0478 51.8411 43.7427L52.6995 45.3166C52.8433 45.5803 53.0981 45.7654 53.3933 45.8207L55.1554 46.1507C55.9335 46.2964 56.2418 47.2454 55.698 47.8206L54.4664 49.1233C54.26 49.3416 54.1627 49.6411 54.2014 49.939L54.4321 51.7168C54.5339 52.5018 53.7266 53.0884 53.0115 52.7489L51.392 51.9801C51.1206 51.8513 50.8057 51.8513 50.5344 51.9801L48.9148 52.7489C48.1997 53.0884 47.3924 52.5018 47.4943 51.7168L47.725 49.939C47.7637 49.6411 47.6663 49.3416 47.46 49.1233L46.2284 47.8206C45.6845 47.2454 45.9929 46.2964 46.7709 46.1507L48.533 45.8207C48.8283 45.7654 49.0831 45.5803 49.2269 45.3166L50.0853 43.7427Z" fill="url(#paint3_linear_548_28479)"/>
<path d="M97.6099 82.2945L75.8119 69.8744C75.4046 69.6184 74.8945 69.6624 74.5108 69.9457C74.127 70.229 73.9558 70.729 74.0786 71.1813L80.3741 94.3685C80.4969 94.821 80.8622 95.1487 81.3382 95.2046C81.4969 95.2234 81.6841 95.2343 81.8274 95.1964C82.114 95.1206 82.3488 94.9676 82.4955 94.7166L87.5227 87.2762C87.6571 87.0771 87.8595 86.9336 88.0925 86.872L97.3299 84.4297C97.7884 84.3085 98.1413 83.912 98.1981 83.4424C98.2548 82.9727 98.0383 82.5147 97.6101 82.2946L97.6099 82.2945Z" fill="url(#paint4_linear_548_28479)"/>
<defs>
<linearGradient id="paint0_linear_548_28479" x1="31.0856" y1="-3.73597" x2="83.4561" y2="60.0031" gradientUnits="userSpaceOnUse">
<stop stop-color="#FEFFD7"/>
<stop offset="0.557292" stop-color="#69FFE5"/>
<stop offset="1" stop-color="#EEFFD9"/>
</linearGradient>
<linearGradient id="paint1_linear_548_28479" x1="31.0856" y1="-3.73597" x2="83.4561" y2="60.0031" gradientUnits="userSpaceOnUse">
<stop stop-color="#FEFFD7"/>
<stop offset="0.557292" stop-color="#69FFE5"/>
<stop offset="1" stop-color="#EEFFD9"/>
</linearGradient>
<linearGradient id="paint2_linear_548_28479" x1="32.5442" y1="37.6862" x2="68.2135" y2="61.4509" gradientUnits="userSpaceOnUse">
<stop offset="0.015625" stop-color="#FEFFD7"/>
<stop offset="0.557292" stop-color="#69FFE5"/>
<stop offset="0.994792" stop-color="#3662FF"/>
</linearGradient>
<linearGradient id="paint3_linear_548_28479" x1="43.7066" y1="42.1329" x2="59.4776" y2="50.574" gradientUnits="userSpaceOnUse">
<stop offset="0.015625" stop-color="#FEFFD7"/>
<stop offset="0.557292" stop-color="#69FFE5"/>
<stop offset="0.994792" stop-color="#3662FF"/>
</linearGradient>
<linearGradient id="paint4_linear_548_28479" x1="72.2976" y1="70.44" x2="102.157" y2="74.1646" gradientUnits="userSpaceOnUse">
<stop offset="0.015625" stop-color="#FEFFD7"/>
<stop offset="0.557292" stop-color="#69FFE5"/>
<stop offset="0.994792" stop-color="#3662FF"/>
</linearGradient>
</defs>
</svg>
