<svg width="1341" height="671" viewBox="0 0 1341 671" fill="none" xmlns="http://www.w3.org/2000/svg">
<mask id="path-1-inside-1_610_71496" fill="white">
<path d="M1340.38 670.552C1340.38 582.566 1323.05 495.442 1289.38 414.154C1255.71 332.866 1206.36 259.006 1144.14 196.79C1081.93 134.575 1008.06 85.2233 926.777 51.5526C845.489 17.882 758.364 0.551886 670.379 0.551875C582.393 0.551863 495.269 17.8819 413.981 51.5525C332.693 85.2232 258.833 134.575 196.617 196.79C134.402 259.005 85.0504 332.866 51.3797 414.154C17.7091 495.442 0.379031 582.566 0.379023 670.552L670.379 670.552L1340.38 670.552Z"/>
</mask>
<path d="M1340.38 670.552C1340.38 582.566 1323.05 495.442 1289.38 414.154C1255.71 332.866 1206.36 259.006 1144.14 196.79C1081.93 134.575 1008.06 85.2233 926.777 51.5526C845.489 17.882 758.364 0.551886 670.379 0.551875C582.393 0.551863 495.269 17.8819 413.981 51.5525C332.693 85.2232 258.833 134.575 196.617 196.79C134.402 259.005 85.0504 332.866 51.3797 414.154C17.7091 495.442 0.379031 582.566 0.379023 670.552L670.379 670.552L1340.38 670.552Z" stroke="url(#paint0_linear_610_71496)" stroke-width="2" mask="url(#path-1-inside-1_610_71496)"/>
<defs>
<linearGradient id="paint0_linear_610_71496" x1="1340.38" y1="230.633" x2="831.397" y2="699.587" gradientUnits="userSpaceOnUse">
<stop stop-opacity="0"/>
<stop offset="0.118268" stop-color="#07FF99"/>
<stop offset="0.356744" stop-color="#0349A0"/>
<stop offset="0.973958" stop-opacity="0"/>
</linearGradient>
</defs>
</svg>
