<svg width="161" height="161" viewBox="0 0 161 161" fill="none" xmlns="http://www.w3.org/2000/svg">
<path d="M11.3868 130.472C11.3868 131.576 12.2822 132.472 13.3868 132.472L135.062 132.472C136.167 132.472 137.062 131.576 137.062 130.472L137.062 113.87L137.062 66.0352C137.062 60.4052 135.057 54.9593 131.406 50.6736C126.906 45.3902 120.314 42.3464 113.374 42.3464L112.09 42.3464C104.986 42.3464 98.2464 45.4941 93.6864 50.9421L81.9493 64.9645C78.1308 69.5266 71.6672 70.8461 66.3661 68.1457C60.5082 65.1616 53.3419 67.1144 49.8078 72.6578L44.122 81.5762C40.5239 87.2198 34.7327 91.1046 28.146 92.2929L23.6446 93.105C20.8423 93.6106 17.9725 93.6135 15.1692 93.1135L11.3867 92.4388L11.3868 130.472Z" fill="white" fill-opacity="0.2"/>
<rect opacity="0.2" x="26.6875" y="52.7446" width="23.2978" height="79.4544" rx="2" fill="#69FFE5"/>
<rect opacity="0.2" x="51.9844" y="30.2109" width="23.2978" height="101.988" rx="2" fill="#69FFE5"/>
<rect opacity="0.2" x="77.2812" y="11.7725" width="24.0009" height="120.427" rx="2" fill="#69FFE5"/>
<path d="M39.1847 78.4006L39.471 76.9281L38.5678 76.7525L38.0019 77.478L39.1847 78.4006ZM64.8479 83.3903L64.5616 84.8627L65.4763 85.0406L66.0411 84.2994L64.8479 83.3903ZM87.6574 53.454V51.9539H86.9145L86.4643 52.5449L87.6574 53.454ZM104.765 53.454V54.954H105.443L105.891 54.4442L104.765 53.454ZM126.933 29.8357C126.879 29.009 126.166 28.382 125.339 28.4353L111.867 29.3043C111.04 29.3577 110.413 30.0711 110.466 30.8978C110.52 31.7245 111.233 32.3515 112.06 32.2982L124.035 31.5257L124.808 43.5011C124.861 44.3278 125.575 44.9548 126.401 44.9014C127.228 44.8481 127.855 44.1347 127.802 43.308L126.933 29.8357ZM12.5695 114.962L40.3675 79.3231L38.0019 77.478L10.2039 113.117L12.5695 114.962ZM38.8984 79.873L64.5616 84.8627L65.1342 81.9178L39.471 76.9281L38.8984 79.873ZM66.0411 84.2994L88.8506 54.3631L86.4643 52.5449L63.6548 82.4812L66.0411 84.2994ZM87.6574 54.954H104.765V51.9539H87.6574V54.954ZM105.891 54.4442L126.562 30.9225L124.309 28.942L103.638 52.4638L105.891 54.4442Z" fill="url(#paint0_linear_548_28475)"/>
<circle cx="137.062" cy="112.472" r="20" fill="white" fill-opacity="0.2"/>
<circle cx="137.064" cy="112.471" r="10.4157" fill="#69FFE5" fill-opacity="0.2"/>
<path d="M136.185 107.581C136.564 106.886 137.561 106.886 137.94 107.581L138.86 109.267C139.004 109.531 139.259 109.716 139.554 109.772L141.442 110.125C142.22 110.271 142.528 111.22 141.985 111.795L140.665 113.191C140.459 113.409 140.361 113.709 140.4 114.007L140.647 115.911C140.749 116.696 139.942 117.283 139.227 116.943L137.491 116.12C137.22 115.991 136.905 115.991 136.634 116.12L134.898 116.943C134.183 117.283 133.376 116.696 133.478 115.911L133.725 114.007C133.764 113.709 133.666 113.409 133.46 113.191L132.14 111.795C131.597 111.22 131.905 110.271 132.683 110.125L134.571 109.772C134.866 109.716 135.121 109.531 135.265 109.267L136.185 107.581Z" fill="url(#paint1_linear_548_28475)"/>
<mask id="path-9-inside-1_548_28475" fill="white">
<path d="M152.804 112.471C153.356 112.471 153.807 112.023 153.774 111.472C153.638 109.196 153.038 106.968 152.008 104.926C150.827 102.586 149.113 100.556 147.004 98.9992C144.896 97.4425 142.451 96.4024 139.867 95.9628C137.283 95.5232 134.632 95.6963 132.127 96.4681C129.622 97.2399 127.334 98.589 125.445 100.407C123.557 102.224 122.121 104.46 121.255 106.934C120.388 109.407 120.114 112.05 120.455 114.649C120.752 116.916 121.51 119.096 122.679 121.054C122.962 121.528 123.587 121.645 124.043 121.334L124.19 121.234C124.646 120.923 124.761 120.303 124.482 119.826C123.503 118.152 122.866 116.295 122.613 114.366C122.317 112.105 122.555 109.806 123.309 107.654C124.063 105.502 125.312 103.557 126.955 101.975C128.598 100.394 130.589 99.22 132.768 98.5485C134.947 97.877 137.254 97.7265 139.502 98.1089C141.75 98.4914 143.877 99.3962 145.711 100.751C147.546 102.105 149.037 103.871 150.064 105.907C150.941 107.644 151.46 109.537 151.593 111.472C151.631 112.023 152.075 112.471 152.627 112.471H152.804Z"/>
</mask>
<path d="M152.804 112.471C153.356 112.471 153.807 112.023 153.774 111.472C153.638 109.196 153.038 106.968 152.008 104.926C150.827 102.586 149.113 100.556 147.004 98.9992C144.896 97.4425 142.451 96.4024 139.867 95.9628C137.283 95.5232 134.632 95.6963 132.127 96.4681C129.622 97.2399 127.334 98.589 125.445 100.407C123.557 102.224 122.121 104.46 121.255 106.934C120.388 109.407 120.114 112.05 120.455 114.649C120.752 116.916 121.51 119.096 122.679 121.054C122.962 121.528 123.587 121.645 124.043 121.334L124.19 121.234C124.646 120.923 124.761 120.303 124.482 119.826C123.503 118.152 122.866 116.295 122.613 114.366C122.317 112.105 122.555 109.806 123.309 107.654C124.063 105.502 125.312 103.557 126.955 101.975C128.598 100.394 130.589 99.22 132.768 98.5485C134.947 97.877 137.254 97.7265 139.502 98.1089C141.75 98.4914 143.877 99.3962 145.711 100.751C147.546 102.105 149.037 103.871 150.064 105.907C150.941 107.644 151.46 109.537 151.593 111.472C151.631 112.023 152.075 112.471 152.627 112.471H152.804Z" stroke="url(#paint2_linear_548_28475)" stroke-width="4" stroke-linecap="round" mask="url(#path-9-inside-1_548_28475)"/>
<mask id="path-10-inside-2_548_28475" fill="white">
<path d="M131.365 127.152C131.165 127.667 131.42 128.249 131.946 128.418C135.599 129.589 139.555 129.473 143.148 128.071C146.74 126.669 149.729 124.074 151.622 120.737C151.895 120.257 151.688 119.656 151.192 119.412L151.033 119.334C150.537 119.091 149.941 119.297 149.664 119.775C148.014 122.624 145.441 124.839 142.356 126.043C139.271 127.247 135.878 127.361 132.734 126.384C132.207 126.22 131.628 126.472 131.429 126.987L131.365 127.152Z"/>
</mask>
<path d="M131.365 127.152C131.165 127.667 131.42 128.249 131.946 128.418C135.599 129.589 139.555 129.473 143.148 128.071C146.74 126.669 149.729 124.074 151.622 120.737C151.895 120.257 151.688 119.656 151.192 119.412L151.033 119.334C150.537 119.091 149.941 119.297 149.664 119.775C148.014 122.624 145.441 124.839 142.356 126.043C139.271 127.247 135.878 127.361 132.734 126.384C132.207 126.22 131.628 126.472 131.429 126.987L131.365 127.152Z" stroke="url(#paint3_linear_548_28475)" stroke-width="4" stroke-linecap="round" mask="url(#path-10-inside-2_548_28475)"/>
<defs>
<linearGradient id="paint0_linear_548_28475" x1="2.75939" y1="29.9323" x2="122.989" y2="117.19" gradientUnits="userSpaceOnUse">
<stop offset="0.015625" stop-color="#FEFFD7"/>
<stop offset="0.557292" stop-color="#69FFE5"/>
<stop offset="0.994792" stop-color="#3662FF"/>
</linearGradient>
<linearGradient id="paint1_linear_548_28475" x1="129.579" y1="105.971" x2="145.843" y2="114.676" gradientUnits="userSpaceOnUse">
<stop offset="0.015625" stop-color="#FEFFD7"/>
<stop offset="0.557292" stop-color="#69FFE5"/>
<stop offset="0.994792" stop-color="#3662FF"/>
</linearGradient>
<linearGradient id="paint2_linear_548_28475" x1="125.169" y1="80.0111" x2="156.49" y2="118.131" gradientUnits="userSpaceOnUse">
<stop stop-color="#FEFFD7"/>
<stop offset="0.557292" stop-color="#69FFE5"/>
<stop offset="1" stop-color="#EEFFD9"/>
</linearGradient>
<linearGradient id="paint3_linear_548_28475" x1="125.169" y1="80.0111" x2="156.49" y2="118.131" gradientUnits="userSpaceOnUse">
<stop stop-color="#FEFFD7"/>
<stop offset="0.557292" stop-color="#69FFE5"/>
<stop offset="1" stop-color="#EEFFD9"/>
</linearGradient>
</defs>
</svg>
