<svg width="101" height="101" viewBox="0 0 101 101" fill="none" xmlns="http://www.w3.org/2000/svg">
<path d="M16.8906 88.2104C16.8906 89.315 17.7861 90.2104 18.8906 90.2104L82.8987 90.2105C84.0033 90.2105 84.8987 89.315 84.8987 88.2105L84.8987 80.1948L84.8987 70.6008C84.8987 67.5517 83.8089 64.6031 81.8259 62.287C79.3973 59.4504 75.8497 57.8176 72.1155 57.8176L71.6955 57.8176C67.6531 57.8176 63.8172 59.6034 61.215 62.6968L54.7777 70.3489C52.8833 72.6009 49.688 73.2524 47.0632 71.922C43.8053 70.2707 39.8297 71.708 38.3808 75.0607L37.1792 77.8415C36.0458 80.4642 33.7568 82.4102 30.986 83.1067L27.9231 83.8767C23.8424 84.9025 19.5374 83.4658 16.8906 80.1948L16.8906 88.2104Z" fill="white" fill-opacity="0.2"/>
<rect x="16.8984" y="69.1177" width="20" height="21.0929" rx="2" fill="#69FFE5" fill-opacity="0.4"/>
<rect x="40.8984" y="57.3999" width="20" height="32.8105" rx="2" fill="#69FFE5" fill-opacity="0.4"/>
<rect x="64.8984" y="79.4058" width="20" height="10.8045" rx="2" fill="#69FFE5" fill-opacity="0.4"/>
<circle cx="50.8984" cy="35.0908" r="20" fill="white" fill-opacity="0.2"/>
<circle cx="50.9" cy="35.0905" r="10.4157" fill="#69FFE5" fill-opacity="0.2"/>
<path d="M50.0205 30.2001C50.3995 29.5052 51.3974 29.5052 51.7764 30.2001L52.6961 31.8865C52.8399 32.1503 53.0947 32.3354 53.3899 32.3906L55.278 32.7442C56.0561 32.8899 56.3644 33.8389 55.8206 34.4141L54.5009 35.81C54.2946 36.0282 54.1973 36.3277 54.2359 36.6256L54.4831 38.5306C54.585 39.3156 53.7777 39.9021 53.0626 39.5626L51.3273 38.7389C51.0559 38.6101 50.741 38.6101 50.4696 38.7389L48.7343 39.5626C48.0192 39.9021 47.2119 39.3156 47.3138 38.5306L47.561 36.6256C47.5996 36.3277 47.5023 36.0282 47.2959 35.81L45.9763 34.4141C45.4325 33.8389 45.7408 32.8899 46.5189 32.7442L48.4069 32.3906C48.7022 32.3354 48.957 32.1503 49.1008 31.8865L50.0205 30.2001Z" fill="url(#paint0_linear_548_28480)"/>
<mask id="path-8-inside-1_548_28480" fill="white">
<path d="M66.6401 35.0906C67.1924 35.0906 67.6432 34.6425 67.6103 34.0912C67.4742 31.815 66.8744 29.5869 65.8438 27.5451C64.6628 25.2052 62.949 23.1751 60.8403 21.6184C58.7316 20.0616 56.2869 19.0216 53.703 18.5819C51.119 18.1423 48.4679 18.3154 45.9631 19.0872C43.4582 19.8591 41.1695 21.2081 39.2811 23.0258C37.3927 24.8436 35.9574 27.0792 35.0906 29.5528C34.2238 32.0264 33.9498 34.6689 34.2906 37.2678C34.5879 39.5356 35.3462 41.7148 36.5148 43.6728C36.7979 44.147 37.4227 44.2637 37.8792 43.9529L38.0255 43.8533C38.482 43.5424 38.5968 42.9219 38.318 42.4452C37.3388 40.7708 36.7021 38.9146 36.4491 36.9847C36.1526 34.7238 36.391 32.4247 37.1451 30.2727C37.8992 28.1207 39.1479 26.1757 40.7908 24.5943C42.4337 23.0129 44.4249 21.8392 46.6041 21.1677C48.7834 20.4962 51.0898 20.3456 53.3378 20.7281C55.5859 21.1105 57.7128 22.0154 59.5473 23.3698C61.3819 24.7241 62.8729 26.4903 63.9004 28.526C64.7774 30.2636 65.2958 32.1562 65.4289 34.0913C65.4667 34.6423 65.9109 35.0906 66.4632 35.0906H66.6401Z"/>
</mask>
<path d="M66.6401 35.0906C67.1924 35.0906 67.6432 34.6425 67.6103 34.0912C67.4742 31.815 66.8744 29.5869 65.8438 27.5451C64.6628 25.2052 62.949 23.1751 60.8403 21.6184C58.7316 20.0616 56.2869 19.0216 53.703 18.5819C51.119 18.1423 48.4679 18.3154 45.9631 19.0872C43.4582 19.8591 41.1695 21.2081 39.2811 23.0258C37.3927 24.8436 35.9574 27.0792 35.0906 29.5528C34.2238 32.0264 33.9498 34.6689 34.2906 37.2678C34.5879 39.5356 35.3462 41.7148 36.5148 43.6728C36.7979 44.147 37.4227 44.2637 37.8792 43.9529L38.0255 43.8533C38.482 43.5424 38.5968 42.9219 38.318 42.4452C37.3388 40.7708 36.7021 38.9146 36.4491 36.9847C36.1526 34.7238 36.391 32.4247 37.1451 30.2727C37.8992 28.1207 39.1479 26.1757 40.7908 24.5943C42.4337 23.0129 44.4249 21.8392 46.6041 21.1677C48.7834 20.4962 51.0898 20.3456 53.3378 20.7281C55.5859 21.1105 57.7128 22.0154 59.5473 23.3698C61.3819 24.7241 62.8729 26.4903 63.9004 28.526C64.7774 30.2636 65.2958 32.1562 65.4289 34.0913C65.4667 34.6423 65.9109 35.0906 66.4632 35.0906H66.6401Z" stroke="url(#paint1_linear_548_28480)" stroke-width="4" stroke-linecap="round" mask="url(#path-8-inside-1_548_28480)"/>
<mask id="path-9-inside-2_548_28480" fill="white">
<path d="M45.2007 49.771C45.001 50.2859 45.2558 50.8683 45.7817 51.0369C49.4348 52.2083 53.391 52.0924 56.9835 50.6901C60.576 49.2878 63.5645 46.6928 65.458 43.3563C65.7306 42.876 65.5235 42.2749 65.0278 42.0315L64.8689 41.9535C64.3732 41.71 63.7769 41.9166 63.5001 42.3945C61.8498 45.2429 59.2768 47.458 56.1919 48.6621C53.107 49.8663 49.7139 49.9802 46.5703 49.003C46.0429 48.8391 45.4644 49.0911 45.2647 49.606L45.2007 49.771Z"/>
</mask>
<path d="M45.2007 49.771C45.001 50.2859 45.2558 50.8683 45.7817 51.0369C49.4348 52.2083 53.391 52.0924 56.9835 50.6901C60.576 49.2878 63.5645 46.6928 65.458 43.3563C65.7306 42.876 65.5235 42.2749 65.0278 42.0315L64.8689 41.9535C64.3732 41.71 63.7769 41.9166 63.5001 42.3945C61.8498 45.2429 59.2768 47.458 56.1919 48.6621C53.107 49.8663 49.7139 49.9802 46.5703 49.003C46.0429 48.8391 45.4644 49.0911 45.2647 49.606L45.2007 49.771Z" stroke="url(#paint2_linear_548_28480)" stroke-width="4" stroke-linecap="round" mask="url(#path-9-inside-2_548_28480)"/>
<defs>
<linearGradient id="paint0_linear_548_28480" x1="43.415" y1="28.5903" x2="59.679" y2="37.2951" gradientUnits="userSpaceOnUse">
<stop offset="0.015625" stop-color="#FEFFD7"/>
<stop offset="0.557292" stop-color="#69FFE5"/>
<stop offset="0.994792" stop-color="#3662FF"/>
</linearGradient>
<linearGradient id="paint1_linear_548_28480" x1="39.0052" y1="2.63023" x2="70.3262" y2="40.7504" gradientUnits="userSpaceOnUse">
<stop stop-color="#FEFFD7"/>
<stop offset="0.557292" stop-color="#69FFE5"/>
<stop offset="1" stop-color="#EEFFD9"/>
</linearGradient>
<linearGradient id="paint2_linear_548_28480" x1="39.0052" y1="2.63023" x2="70.3262" y2="40.7504" gradientUnits="userSpaceOnUse">
<stop stop-color="#FEFFD7"/>
<stop offset="0.557292" stop-color="#69FFE5"/>
<stop offset="1" stop-color="#EEFFD9"/>
</linearGradient>
</defs>
</svg>
