<svg width="101" height="101" viewBox="0 0 101 101" fill="none" xmlns="http://www.w3.org/2000/svg">
<path opacity="0.1" fill-rule="evenodd" clip-rule="evenodd" d="M53.4807 16.9209C52.4553 18.8672 51.875 21.0843 51.875 23.437V31.8799C51.875 39.6119 58.143 45.8799 65.875 45.8799H66.454L70.2554 49.4849C73.802 52.8485 79.3935 52.7744 82.8499 49.3181L86.2881 45.8799H86.875C88.6366 45.8799 90.3222 45.5545 91.875 44.9606V68.9209C91.875 77.7575 84.7116 84.9209 75.875 84.9209H25.875C17.0384 84.9209 9.875 77.7575 9.875 68.9209V32.9209C9.875 24.0843 17.0384 16.9209 25.875 16.9209H53.4807Z" fill="white"/>
<path opacity="0.2" fill-rule="evenodd" clip-rule="evenodd" d="M51.875 24.9209H25.875C21.4567 24.9209 17.875 28.5026 17.875 32.9209V68.9209C17.875 73.3392 21.4567 76.9209 25.875 76.9209H75.875C80.2933 76.9209 83.875 73.3392 83.875 68.9209V48.293L82.8499 49.3181C79.3935 52.7744 73.802 52.8485 70.2554 49.4849L66.454 45.8799H65.875C58.143 45.8799 51.875 39.6119 51.875 31.8799V24.9209Z" fill="#69FFE5"/>
<path d="M83.8755 68.9209C83.8755 73.3392 80.2938 76.9209 75.8755 76.9209L25.8756 76.9209C21.4573 76.9209 17.8756 73.3392 17.8756 68.9209L17.8756 66.9053L17.8756 57.1438C17.8756 54.1987 18.9059 51.3464 20.7881 49.0813C23.1849 46.1967 26.7409 44.528 30.4913 44.528L30.6896 44.528C34.6051 44.528 38.3134 46.2877 40.7896 49.3208L46.8594 56.7557C48.831 59.1708 52.2283 59.868 54.9918 58.4247C58.0521 56.8263 61.8275 57.8688 63.6339 60.8111L63.7622 61.02C65.7516 64.2603 70.0033 65.2537 73.2226 63.2304L75.3484 61.8943C79.1711 59.4917 84.1142 62.3965 83.8755 66.9053L83.8755 68.9209Z" fill="#69FFE5" fill-opacity="0.4"/>
<path d="M44.577 28.8701H29.5626C25.8055 28.8701 22.7598 31.7639 22.7598 35.3336V64.4193C22.7598 67.989 25.8055 70.8828 29.5626 70.8828H72.08C75.8371 70.8828 78.8828 67.989 78.8828 64.4193V56.2628" stroke="url(#paint0_linear_548_28477)" stroke-width="2" stroke-linecap="round"/>
<path d="M48.6022 50.921L48.6023 54.3317L48.6023 55.6953C48.6023 56.5279 49.5603 56.9958 50.217 56.484L56.3434 51.7098C56.8571 51.3094 56.8571 50.5326 56.3434 50.1322L50.217 45.3581C49.5603 44.8463 48.6023 45.3143 48.6023 46.1468L48.6023 47.5104" stroke="url(#paint1_linear_548_28477)" stroke-width="2" stroke-linecap="round" stroke-linejoin="round"/>
<mask id="path-6-inside-1_548_28477" fill="white">
<path fill-rule="evenodd" clip-rule="evenodd" d="M65.6777 17.0054C62.364 17.0054 59.6777 19.6917 59.6777 23.0054V31.4482C59.6777 34.762 62.364 37.4482 65.6777 37.4482H69.4474L75.5636 43.2486C75.9643 43.6286 76.6057 43.6201 76.9963 43.2296L82.7776 37.4482H86.6777C89.9914 37.4482 92.6777 34.762 92.6777 31.4482V23.0054C92.6777 19.6917 89.9914 17.0054 86.6777 17.0054H65.6777Z"/>
</mask>
<path fill-rule="evenodd" clip-rule="evenodd" d="M65.6777 17.0054C62.364 17.0054 59.6777 19.6917 59.6777 23.0054V31.4482C59.6777 34.762 62.364 37.4482 65.6777 37.4482H69.4474L75.5636 43.2486C75.9643 43.6286 76.6057 43.6201 76.9963 43.2296L82.7776 37.4482H86.6777C89.9914 37.4482 92.6777 34.762 92.6777 31.4482V23.0054C92.6777 19.6917 89.9914 17.0054 86.6777 17.0054H65.6777Z" fill="#69FFE5" fill-opacity="0.2"/>
<path d="M69.4474 37.4482L70.8236 35.9971L70.245 35.4482H69.4474V37.4482ZM75.5636 43.2486L76.9398 41.7974H76.9398L75.5636 43.2486ZM76.9963 43.2296L78.4105 44.6438L76.9963 43.2296ZM82.7776 37.4482V35.4482H81.9492L81.3634 36.034L82.7776 37.4482ZM61.6777 23.0054C61.6777 20.7962 63.4686 19.0054 65.6777 19.0054V15.0054C61.2595 15.0054 57.6777 18.5871 57.6777 23.0054H61.6777ZM61.6777 31.4482V23.0054H57.6777V31.4482H61.6777ZM65.6777 35.4482C63.4686 35.4482 61.6777 33.6574 61.6777 31.4482H57.6777C57.6777 35.8665 61.2595 39.4482 65.6777 39.4482V35.4482ZM69.4474 35.4482H65.6777V39.4482H69.4474V35.4482ZM76.9398 41.7974L70.8236 35.9971L68.0712 38.8994L74.1873 44.6997L76.9398 41.7974ZM75.582 41.8154C75.958 41.4394 76.5541 41.4315 76.9398 41.7974L74.1873 44.6997C75.3745 45.8257 77.2535 45.8008 78.4105 44.6438L75.582 41.8154ZM81.3634 36.034L75.582 41.8154L78.4105 44.6438L84.1918 38.8625L81.3634 36.034ZM86.6777 35.4482H82.7776V39.4482H86.6777V35.4482ZM90.6777 31.4482C90.6777 33.6574 88.8869 35.4482 86.6777 35.4482V39.4482C91.096 39.4482 94.6777 35.8665 94.6777 31.4482H90.6777ZM90.6777 23.0054V31.4482H94.6777V23.0054H90.6777ZM86.6777 19.0054C88.8869 19.0054 90.6777 20.7962 90.6777 23.0054H94.6777C94.6777 18.5871 91.096 15.0054 86.6777 15.0054V19.0054ZM65.6777 19.0054H86.6777V15.0054H65.6777V19.0054Z" fill="url(#paint2_linear_548_28477)" mask="url(#path-6-inside-1_548_28477)"/>
<path d="M75.2998 23.2011C75.6788 22.5062 76.6767 22.5062 77.0557 23.2011L77.9754 24.8875C78.1192 25.1512 78.374 25.3363 78.6692 25.3916L80.5573 25.7452C81.3354 25.8909 81.6437 26.8399 81.0999 27.4151L79.7802 28.8109C79.5739 29.0292 79.4766 29.3287 79.5152 29.6266L79.7624 31.5315C79.8642 32.3165 79.057 32.9031 78.3419 32.5636L76.6066 31.7399C76.3352 31.6111 76.0203 31.6111 75.7489 31.7399L74.0136 32.5636C73.2985 32.9031 72.4912 32.3165 72.5931 31.5315L72.8403 29.6266C72.8789 29.3287 72.7816 29.0292 72.5752 28.8109L71.2556 27.4151C70.7118 26.8399 71.0201 25.8909 71.7982 25.7452L73.6862 25.3916C73.9815 25.3363 74.2363 25.1512 74.3801 24.8875L75.2998 23.2011Z" fill="url(#paint3_linear_548_28477)"/>
<defs>
<linearGradient id="paint0_linear_548_28477" x1="30.8984" y1="9.15752" x2="66.6431" y2="67.273" gradientUnits="userSpaceOnUse">
<stop stop-color="#FEFFD7"/>
<stop offset="0.557292" stop-color="#69FFE5"/>
<stop offset="1" stop-color="#EEFFD9"/>
</linearGradient>
<linearGradient id="paint1_linear_548_28477" x1="48.9793" y1="42.5447" x2="53.5074" y2="57.5014" gradientUnits="userSpaceOnUse">
<stop offset="0.015625" stop-color="#FEFFD7"/>
<stop offset="0.557292" stop-color="#69FFE5"/>
<stop offset="0.994792" stop-color="#3662FF"/>
</linearGradient>
<linearGradient id="paint2_linear_548_28477" x1="57.1814" y1="17.0054" x2="93.9763" y2="41.5082" gradientUnits="userSpaceOnUse">
<stop offset="0.015625" stop-color="#FEFFD7"/>
<stop offset="0.557292" stop-color="#69FFE5"/>
<stop offset="0.994792" stop-color="#3662FF"/>
</linearGradient>
<linearGradient id="paint3_linear_548_28477" x1="68.6943" y1="21.5913" x2="84.9583" y2="30.2961" gradientUnits="userSpaceOnUse">
<stop offset="0.015625" stop-color="#FEFFD7"/>
<stop offset="0.557292" stop-color="#69FFE5"/>
<stop offset="0.994792" stop-color="#3662FF"/>
</linearGradient>
</defs>
</svg>
