<svg width="768" height="384" viewBox="0 0 768 384" fill="none" xmlns="http://www.w3.org/2000/svg">
<mask id="path-1-inside-1_641_55346" fill="white">
<path d="M768 0C768 50.4276 758.068 100.361 738.77 146.95C719.472 193.539 691.187 235.871 655.529 271.529C619.871 307.187 577.539 335.472 530.95 354.77C484.361 374.068 434.428 384 384 384C333.572 384 283.639 374.068 237.05 354.77C190.461 335.472 148.129 307.187 112.471 271.529C76.8133 235.871 48.5281 193.539 29.2302 146.95C9.93244 100.361 -4.40852e-06 50.4276 0 -3.05176e-05L384 0H768Z"/>
</mask>
<path d="M768 0C768 50.4276 758.068 100.361 738.77 146.95C719.472 193.539 691.187 235.871 655.529 271.529C619.871 307.187 577.539 335.472 530.95 354.77C484.361 374.068 434.428 384 384 384C333.572 384 283.639 374.068 237.05 354.77C190.461 335.472 148.129 307.187 112.471 271.529C76.8133 235.871 48.5281 193.539 29.2302 146.95C9.93244 100.361 -4.40852e-06 50.4276 0 -3.05176e-05L384 0H768Z" stroke="url(#paint0_linear_641_55346)" stroke-width="2" mask="url(#path-1-inside-1_641_55346)"/>
<defs>
<linearGradient id="paint0_linear_641_55346" x1="255.869" y1="-305.06" x2="106.351" y2="95.8268" gradientUnits="userSpaceOnUse">
<stop stop-opacity="0"/>
<stop offset="0.510417" stop-color="#8DFDE9"/>
<stop offset="0.973958" stop-opacity="0"/>
</linearGradient>
</defs>
</svg>
