<svg width="174" height="32" viewBox="0 0 174 32" fill="none" xmlns="http://www.w3.org/2000/svg">
    <path d="M0.15625 0.210571H34.6329V31.7895H0.15625V0.210571ZM1.88008 1.89478V30.1053H32.9091V1.89478H1.88008Z"
          fill="url(#paint0_linear_499_26045)"/>
    <path d="M16.1525 18.9222L19.8113 15.9303L16.1525 12.9378V18.9222ZM27.0925 10.9303C26.6679 8.70344 24.8783 7.00058 22.642 6.58544C20.9424 6.25846 19.2199 6.10535 17.5429 6.10535C15.8207 6.10535 14.0984 6.25846 12.3991 6.58544C10.1178 7.00058 8.39585 8.72528 7.97067 10.9085C7.32228 14.2269 7.32228 17.6113 7.97067 20.9078C8.39557 23.1569 10.1622 24.8379 12.3991 25.253C14.0984 25.6018 15.8207 25.7549 17.5429 25.7549C19.2649 25.7549 20.9642 25.6018 22.6641 25.2746C24.9456 24.8379 26.6679 23.135 27.0925 20.93C27.7635 17.611 27.7635 14.2269 27.0925 10.9303ZM20.7332 16.2442L16.0025 20.1128C15.9257 20.1756 15.8301 20.2083 15.7335 20.2083C15.6732 20.2083 15.6125 20.1958 15.5561 20.1698C15.4086 20.1024 15.3145 19.958 15.3145 19.7989V12.0611C15.3145 11.902 15.4086 11.7576 15.5561 11.6902C15.7033 11.6231 15.8774 11.6452 16.0025 11.7472L20.7332 15.6164C20.8284 15.6942 20.8832 15.8091 20.8832 15.9303C20.8832 16.0515 20.8284 16.1664 20.7332 16.2442Z"
          fill="url(#paint1_linear_499_26045)"/>
    <path d="M43.25 22.4259V19.7512C43.483 19.8081 43.7742 19.865 44.1043 19.903C44.4343 19.9599 44.7838 19.9978 45.1527 20.0168C45.5216 20.0357 45.8905 20.0547 46.2788 20.0737C46.6671 20.0927 47.036 20.1116 47.3661 20.1116C48.2786 20.1116 48.9193 20.0547 49.3076 19.9599C49.6765 19.865 49.8707 19.6943 49.8707 19.4287C49.8707 19.2011 49.6959 19.0304 49.5212 18.8976C48.8805 18.4803 48.1233 18.3096 47.3661 18.1388C45.2304 17.7215 43.2694 16.8869 43.2694 14.4968C43.2694 11.6704 46.007 11.0064 48.3563 11.0064C49.6571 11.0064 50.9773 11.1392 52.2393 11.4427V14.1174C52.0452 14.0605 51.7928 14.0225 51.4821 13.9656C51.1521 13.9277 50.822 13.8897 50.4531 13.8518C49.6959 13.7759 48.9775 13.738 48.2203 13.738C47.7932 13.738 46.9001 13.738 46.4924 13.8897C46.2206 13.9846 46.0458 14.0984 46.0458 14.4019C46.0458 14.5537 46.0847 14.6864 46.1623 14.8003C46.24 14.933 46.3759 15.0279 46.5506 15.1227C47.0748 15.4073 47.7544 15.578 48.3368 15.7108C48.8222 15.8246 49.3076 15.9574 49.8124 16.0902C51.521 16.5454 52.6471 17.4749 52.6471 19.258C52.6471 22.1982 49.6571 22.8242 47.2496 22.8242C45.9293 22.8242 44.5508 22.7294 43.25 22.4259ZM59.5978 13.5483V16.185H56.8796V17.9681C56.8796 19.4287 57.8698 20.1685 59.3066 20.1685C59.4813 20.1685 59.6366 20.1496 59.7725 20.1306C59.9084 20.1116 60.0249 20.0927 60.1608 20.0737V22.7104C59.9861 22.7294 59.8502 22.7673 59.7531 22.7863C59.6366 22.8052 59.4425 22.8052 59.1901 22.8052C56.2583 22.8052 53.9673 20.8514 53.9673 17.9681V10.9495H56.8796V13.5483H59.5978ZM64.2187 17.9681V22.7104H61.3063V17.9871C61.3063 14.8382 63.675 13.131 66.665 13.131C66.7621 13.131 66.898 13.131 67.0339 13.1499C67.1698 13.1689 67.3251 13.2069 67.461 13.2258V15.9764C67.364 15.9574 67.2475 15.9384 67.1116 15.9194C66.9756 15.9005 66.8591 15.8815 66.7621 15.8815C66.2767 15.8815 65.8884 15.9384 65.5583 16.0333C65.0147 16.223 64.5293 16.5834 64.3546 17.1524C64.2575 17.399 64.2187 17.6836 64.2187 17.9681ZM71.0529 16.83C71.3441 16.9248 71.6742 17.0007 72.0237 17.0386C72.3731 17.0955 72.7032 17.1145 73.0138 17.1145C73.4021 17.1145 74.3923 17.0386 74.3923 16.4885C74.3923 15.9005 73.5381 15.8815 73.1109 15.8815C72.2566 15.8815 71.5189 16.0712 71.0529 16.83ZM76.5474 19.7512V22.4069C75.4602 22.6535 74.3729 22.8242 73.2468 22.8242C70.1598 22.8242 67.8688 21.0601 67.8688 18.0061C67.8688 14.99 70.0821 13.131 73.0138 13.131C75.0136 13.131 77.3241 14.0605 77.3241 16.2799C77.3241 18.4803 74.8777 19.296 72.9944 19.296C72.2761 19.296 71.5577 19.1063 70.8976 18.8407C71.2859 19.903 72.4508 20.0737 73.4604 20.0737C73.9846 20.0737 74.5088 20.0547 75.033 19.9788C75.5184 19.9409 76.0815 19.884 76.5474 19.7512ZM85.5756 17.9681C85.498 16.5834 84.8572 15.7677 83.3817 15.7677C82.9739 15.7677 82.6245 15.8246 82.3332 15.9384C81.4401 16.3368 81.1101 17.0766 81.1101 17.9871C81.1101 18.2906 81.1489 18.5751 81.246 18.8217C81.5372 19.8081 82.4109 20.1685 83.3817 20.1685C84.8572 20.1685 85.5756 19.3908 85.5756 17.9681ZM89.2645 22.7104H86.3522C86.1581 22.2362 85.9833 21.7619 85.8668 21.2687C85.2067 22.331 84.1971 22.8052 82.9545 22.8052C80.1781 22.8052 78.1978 20.5289 78.1978 17.9302C78.1978 14.933 80.4888 13.131 83.3817 13.131C86.4687 13.131 88.4103 15.0658 88.4879 17.9681C88.5073 18.2147 88.5073 18.4992 88.5073 18.8407C88.5073 20.1685 88.7209 21.4964 89.2645 22.7104ZM105.962 17.5887V22.7104H103.049V17.5887C103.049 16.5075 102.525 15.7677 101.36 15.7677C100.215 15.7677 99.6518 16.5265 99.6518 17.5887V22.7104H96.7395V17.5887C96.7395 16.5075 96.1764 15.7677 95.0115 15.7677C93.866 15.7677 93.3418 16.5265 93.3418 17.5887V22.7104H90.4295V17.5887C90.4295 14.8382 92.3516 13.131 95.0503 13.131C96.4288 13.131 97.4967 13.757 98.1956 14.9141C98.8946 13.757 99.9624 13.131 101.341 13.131C104.137 13.131 105.962 14.933 105.962 17.5887ZM115.242 20.3582H110.874L110.02 22.7104H106.855L111.612 11.1013H114.524L119.281 22.7104H116.097L115.242 20.3582ZM111.825 17.7215H114.291L113.068 14.345L111.825 17.7215ZM126.775 17.9681C126.775 16.5454 126.057 15.7677 124.581 15.7677C124.173 15.7677 123.824 15.8246 123.533 15.9384C122.989 16.185 122.62 16.5454 122.446 17.1145C122.348 17.3801 122.31 17.6646 122.31 17.9681C122.31 18.2716 122.348 18.5562 122.446 18.8217C122.601 19.3718 123.009 19.7702 123.533 19.9788C123.824 20.1116 124.173 20.1685 124.581 20.1685C126.057 20.1685 126.775 19.3908 126.775 17.9681ZM126.775 14.1743V9.432H129.687V17.9681C129.687 20.9842 127.494 22.8052 124.562 22.8052C121.572 22.8052 119.397 20.9083 119.397 18.0061C119.397 15.3314 121.416 13.131 124.173 13.131C125.202 13.131 126.096 13.4155 126.775 14.1743ZM141.434 13.2258L137.454 22.7104H134.541L130.561 13.2258H133.454C133.881 14.3071 134.308 15.3693 134.735 16.4506C135.143 17.5318 135.57 18.5941 135.997 19.6753C136.425 18.5941 136.852 17.5318 137.279 16.4506C137.687 15.3693 138.114 14.3071 138.541 13.2258H141.434ZM142.21 13.2258H145.123V22.7104H142.21V13.2258ZM143.667 12.3343C142.676 12.3343 141.977 11.6514 141.977 10.684C141.977 9.69756 142.676 9.05261 143.667 9.05261C144.676 9.05261 145.336 9.69756 145.336 10.684C145.336 11.6893 144.696 12.3343 143.667 12.3343ZM146.715 22.4069V19.7512C147.996 20.1306 149.608 20.2065 150.928 20.2065C151.452 20.2065 151.86 20.1875 152.151 20.1306C152.423 20.0927 152.559 19.9978 152.559 19.865C152.559 19.8081 152.539 19.7702 152.501 19.7133C152.306 19.5236 151.879 19.4287 151.627 19.3718C151.374 19.3149 151.044 19.239 150.637 19.1632C150.307 19.1063 149.918 19.0304 149.472 18.9355C147.957 18.6131 146.792 17.7784 146.792 16.185C146.792 13.8328 149.142 13.131 151.122 13.131C152.365 13.131 153.607 13.3017 154.83 13.5483V16.223C153.607 15.8625 152.229 15.7677 150.947 15.7677C150.443 15.7677 150.093 15.7867 149.879 15.8436C149.666 15.9005 149.549 15.9953 149.549 16.1091C149.549 16.2799 149.724 16.3937 150.054 16.4506C150.384 16.5265 150.85 16.6213 151.413 16.7161C151.918 16.811 152.403 16.9058 152.869 17.0197C154.306 17.3801 155.335 18.1388 155.335 19.6564C155.335 22.1982 152.714 22.8242 150.617 22.8242C149.297 22.8242 147.996 22.6535 146.715 22.4069ZM161.296 20.1685C162.713 20.1685 163.529 19.3529 163.529 17.9681C163.529 16.5834 162.713 15.7677 161.296 15.7677C159.878 15.7677 159.063 16.5834 159.063 17.9681C159.063 19.3529 159.878 20.1685 161.296 20.1685ZM161.296 22.8052C158.306 22.8052 156.151 20.8704 156.151 17.9681C156.151 14.971 158.383 13.131 161.296 13.131C164.305 13.131 166.441 15.0658 166.441 17.9681C166.441 20.9463 164.189 22.8052 161.296 22.8052ZM170.732 17.9681V22.7104H167.819V17.9871C167.819 14.8382 170.188 13.131 173.178 13.131C173.275 13.131 173.411 13.131 173.547 13.1499C173.683 13.1689 173.838 13.2069 173.974 13.2258V15.9764C173.877 15.9574 173.76 15.9384 173.625 15.9194C173.489 15.9005 173.372 15.8815 173.275 15.8815C172.79 15.8815 172.401 15.9384 172.071 16.0333C171.528 16.223 171.042 16.5834 170.868 17.1524C170.77 17.399 170.732 17.6836 170.732 17.9681Z"
          fill="white"/>
    <defs>
        <linearGradient id="paint0_linear_499_26045" x1="0.15625" y1="0.210571" x2="34.6329" y2="0.210571"
                        gradientUnits="userSpaceOnUse">
            <stop stop-color="#00FF8F"/>
            <stop offset="1" stop-color="#00A1FF"/>
        </linearGradient>
        <linearGradient id="paint1_linear_499_26045" x1="7.48438" y1="6.10535" x2="27.5958" y2="6.10535"
                        gradientUnits="userSpaceOnUse">
            <stop stop-color="#00FF8F"/>
            <stop offset="1" stop-color="#00A1FF"/>
        </linearGradient>
    </defs>
</svg>
