<svg width="1440" height="640" viewBox="0 0 1440 640" fill="none" xmlns="http://www.w3.org/2000/svg">
<mask id="path-1-inside-1_610_32862" fill="white">
<path d="M1440 0C1440 84.046 1421.38 167.269 1385.19 244.917C1349.01 322.566 1295.98 393.119 1229.12 452.548C1162.26 511.978 1082.89 559.12 995.532 591.283C908.178 623.446 814.552 640 720 640C625.448 640 531.822 623.446 444.468 591.283C357.113 559.12 277.741 511.978 210.883 452.548C144.025 393.119 90.9901 322.566 54.8067 244.917C18.6233 167.269 -8.26597e-06 84.046 0 -6.10352e-05L720 0H1440Z"/>
</mask>
<path d="M1440 0C1440 84.046 1421.38 167.269 1385.19 244.917C1349.01 322.566 1295.98 393.119 1229.12 452.548C1162.26 511.978 1082.89 559.12 995.532 591.283C908.178 623.446 814.552 640 720 640C625.448 640 531.822 623.446 444.468 591.283C357.113 559.12 277.741 511.978 210.883 452.548C144.025 393.119 90.9901 322.566 54.8067 244.917C18.6233 167.269 -8.26597e-06 84.046 0 -6.10352e-05L720 0H1440Z" stroke="url(#paint0_linear_610_32862)" stroke-width="2" mask="url(#path-1-inside-1_610_32862)"/>
<defs>
<linearGradient id="paint0_linear_610_32862" x1="479.754" y1="-508.433" x2="-293.494" y2="-212.012" gradientUnits="userSpaceOnUse">
<stop stop-opacity="0"/>
<stop offset="0.510417" stop-color="#8DFDE9"/>
<stop offset="0.973958" stop-opacity="0"/>
</linearGradient>
</defs>
</svg>
