<svg width="90" height="90" viewBox="0 0 90 90" fill="none" xmlns="http://www.w3.org/2000/svg">
<g clip-path="url(#clip0_832_74582)">
<g filter="url(#filter0_bii_832_74582)">
<rect width="90.8409" height="90.8408" rx="24" transform="matrix(1 0 -2.29379e-06 1 0.00195312 -0.000854492)" fill="white" fill-opacity="0.01"/>
</g>
<g filter="url(#filter1_f_832_74582)">
<path d="M74.3262 90.8404H16.1054C19.6828 87.8124 30.5399 81.7563 45.35 81.7563C60.1601 81.7563 70.8384 87.8124 74.3262 90.8404Z" fill="url(#paint0_linear_832_74582)"/>
</g>
<g filter="url(#filter2_f_832_74582)">
<path d="M60.9876 59.7817C59.2758 60.6376 56.9934 60.067 55.8522 58.3552L52.7138 54.361H37.3074L34.169 58.3552C32.7425 60.3523 30.1747 60.6376 28.1776 59.2111C26.7511 58.0699 26.1805 56.3581 26.4658 54.9316L28.463 44.3753C29.0336 40.9517 32.1719 38.3839 35.5956 38.3839H43.5841L43.5841 34.1044C43.5841 31.822 45.296 29.8248 47.5784 29.8248H56.4228C57.2787 29.8248 57.8494 30.3954 57.8493 31.2513C57.8493 32.1073 57.2787 32.6779 56.4228 32.6779H47.8637C47.0078 32.6779 46.4372 33.2485 46.4372 33.8191L46.4372 38.3839H54.4257C57.8493 38.3839 60.9877 40.9517 61.5583 44.3753L63.5554 54.9316C63.8407 56.9287 62.9848 58.9258 60.9876 59.7817ZM40.731 45.5165C40.7311 43.2341 38.7339 41.237 36.4515 41.237C34.1691 41.237 32.1719 43.2341 32.1719 45.5165C32.1719 47.799 34.169 49.7961 36.4515 49.7961C38.7339 49.7961 40.731 47.799 40.731 45.5165ZM57.8493 45.5165C57.8493 44.6606 57.2787 44.09 56.4228 44.09H54.9963L54.9963 42.6635C54.9963 41.8076 54.4257 41.237 53.5698 41.237C52.7138 41.237 52.1432 41.8076 52.1432 42.6635L52.1432 44.09H50.7167C49.8608 44.09 49.2902 44.6606 49.2902 45.5165C49.2902 46.3725 49.8608 46.9431 50.7167 46.9431H52.1432L52.1432 48.3696C52.1432 49.2255 52.7138 49.7961 53.5697 49.7961C54.4257 49.7961 54.9963 49.2255 54.9963 48.3696L54.9963 46.9431H56.4228C57.2787 46.9431 57.8493 46.3725 57.8493 45.5165Z" fill="url(#paint1_linear_832_74582)"/>
</g>
<path d="M60.9857 55.1033C59.2739 55.9592 56.9914 55.3886 55.8502 53.6768L52.7119 49.6825H37.3054L34.1671 53.6768C32.7405 55.6739 30.1728 55.9592 28.1757 54.5327C26.7491 53.3914 26.1785 51.6796 26.4638 50.2531L28.461 39.6969C29.0316 36.2732 32.17 33.7055 35.5936 33.7055H43.5822L43.5822 29.4259C43.5822 27.1435 45.294 25.1464 47.5764 25.1464H56.4209C57.2768 25.1464 57.8474 25.717 57.8474 26.5729C57.8474 27.4288 57.2768 27.9994 56.4209 27.9994H47.8617C47.0058 27.9994 46.4352 28.57 46.4352 29.1406L46.4352 33.7055H54.4237C57.8474 33.7055 60.9857 36.2732 61.5563 39.6969L63.5534 50.2531C63.8387 52.2502 62.9828 54.2474 60.9857 55.1033ZM40.7291 40.8381C40.7291 38.5556 38.732 36.5585 36.4495 36.5585C34.1671 36.5585 32.17 38.5556 32.17 40.8381C32.17 43.1205 34.1671 45.1176 36.4495 45.1176C38.732 45.1176 40.7291 43.1205 40.7291 40.8381ZM57.8474 40.8381C57.8474 39.9822 57.2768 39.4116 56.4208 39.4116H54.9943L54.9943 37.985C54.9943 37.1291 54.4237 36.5585 53.5678 36.5585C52.7119 36.5585 52.1413 37.1291 52.1413 37.985L52.1413 39.4116H50.7148C49.8588 39.4116 49.2882 39.9822 49.2882 40.8381C49.2882 41.694 49.8588 42.2646 50.7147 42.2646H52.1413L52.1413 43.6911C52.1413 44.547 52.7119 45.1176 53.5678 45.1176C54.4237 45.1176 54.9943 44.547 54.9943 43.6911L54.9943 42.2646H56.4208C57.2767 42.2646 57.8474 41.694 57.8474 40.8381Z" fill="url(#paint2_linear_832_74582)"/>
</g>
<defs>
<filter id="filter0_bii_832_74582" x="-12.3854" y="-12.3882" width="115.617" height="115.616" filterUnits="userSpaceOnUse" color-interpolation-filters="sRGB">
<feFlood flood-opacity="0" result="BackgroundImageFix"/>
<feGaussianBlur in="BackgroundImageFix" stdDeviation="6.19369"/>
<feComposite in2="SourceAlpha" operator="in" result="effect1_backgroundBlur_832_74582"/>
<feBlend mode="normal" in="SourceGraphic" in2="effect1_backgroundBlur_832_74582" result="shape"/>
<feColorMatrix in="SourceAlpha" type="matrix" values="0 0 0 0 0 0 0 0 0 0 0 0 0 0 0 0 0 0 127 0" result="hardAlpha"/>
<feOffset dx="4.12913" dy="4.12913"/>
<feGaussianBlur stdDeviation="1.03228"/>
<feComposite in2="hardAlpha" operator="arithmetic" k2="-1" k3="1"/>
<feColorMatrix type="matrix" values="0 0 0 0 1 0 0 0 0 1 0 0 0 0 1 0 0 0 0.1 0"/>
<feBlend mode="normal" in2="shape" result="effect2_innerShadow_832_74582"/>
<feColorMatrix in="SourceAlpha" type="matrix" values="0 0 0 0 0 0 0 0 0 0 0 0 0 0 0 0 0 0 127 0" result="hardAlpha"/>
<feOffset dy="-2.06456"/>
<feGaussianBlur stdDeviation="5.16141"/>
<feComposite in2="hardAlpha" operator="arithmetic" k2="-1" k3="1"/>
<feColorMatrix type="matrix" values="0 0 0 0 0.558333 0 0 0 0 0.655327 0 0 0 0 1 0 0 0 0.35 0"/>
<feBlend mode="normal" in2="effect2_innerShadow_832_74582" result="effect3_innerShadow_832_74582"/>
</filter>
<filter id="filter1_f_832_74582" x="-4.54018" y="61.1107" width="99.512" height="50.3753" filterUnits="userSpaceOnUse" color-interpolation-filters="sRGB">
<feFlood flood-opacity="0" result="BackgroundImageFix"/>
<feBlend mode="normal" in="SourceGraphic" in2="BackgroundImageFix" result="shape"/>
<feGaussianBlur stdDeviation="10.3228" result="effect1_foregroundBlur_832_74582"/>
</filter>
<filter id="filter2_f_832_74582" x="11.3945" y="14.8248" width="67.2149" height="60.3501" filterUnits="userSpaceOnUse" color-interpolation-filters="sRGB">
<feFlood flood-opacity="0" result="BackgroundImageFix"/>
<feBlend mode="normal" in="SourceGraphic" in2="BackgroundImageFix" result="shape"/>
<feGaussianBlur stdDeviation="7.5" result="effect1_foregroundBlur_832_74582"/>
</filter>
<linearGradient id="paint0_linear_832_74582" x1="20.6475" y1="86.2984" x2="24.4796" y2="74.3173" gradientUnits="userSpaceOnUse">
<stop stop-color="#0038FF"/>
<stop offset="1" stop-color="#00C2FF"/>
</linearGradient>
<linearGradient id="paint1_linear_832_74582" x1="45.0017" y1="29.8248" x2="45.0017" y2="60.175" gradientUnits="userSpaceOnUse">
<stop stop-color="#0038FF"/>
<stop offset="1" stop-color="#00C2FF"/>
</linearGradient>
<linearGradient id="paint2_linear_832_74582" x1="44.9998" y1="25.1464" x2="44.9998" y2="55.4965" gradientUnits="userSpaceOnUse">
<stop stop-color="#0038FF"/>
<stop offset="1" stop-color="#00C2FF"/>
</linearGradient>
<clipPath id="clip0_832_74582">
<rect width="90.0001" height="89.9999" fill="white" transform="matrix(1 0 -2.29379e-06 1 0 0)"/>
</clipPath>
</defs>
</svg>
