<svg width="1440" height="671" viewBox="0 0 1440 671" fill="none" xmlns="http://www.w3.org/2000/svg">
<mask id="path-1-inside-1_610_32863" fill="white">
<path d="M1439.97 670.217C1439.97 582.232 1421.34 495.108 1385.15 413.819C1348.97 332.531 1295.93 258.671 1229.07 196.456C1162.2 134.241 1082.83 84.8887 995.464 51.2182C908.103 17.5475 814.47 0.217428 719.911 0.217411C625.353 0.217395 531.72 17.5475 444.359 51.2181C356.998 84.8887 277.62 134.241 210.756 196.456C143.893 258.671 90.8545 332.531 54.6684 413.819C18.4823 495.107 -0.142454 582.231 -0.142461 670.217L719.911 670.217L1439.97 670.217Z"/>
</mask>
<path d="M1439.97 670.217C1439.97 582.232 1421.34 495.108 1385.15 413.819C1348.97 332.531 1295.93 258.671 1229.07 196.456C1162.2 134.241 1082.83 84.8887 995.464 51.2182C908.103 17.5475 814.47 0.217428 719.911 0.217411C625.353 0.217395 531.72 17.5475 444.359 51.2181C356.998 84.8887 277.62 134.241 210.756 196.456C143.893 258.671 90.8545 332.531 54.6684 413.819C18.4823 495.107 -0.142454 582.231 -0.142461 670.217L719.911 670.217L1439.97 670.217Z" stroke="url(#paint0_linear_610_32863)" stroke-width="2" mask="url(#path-1-inside-1_610_32863)"/>
<defs>
<linearGradient id="paint0_linear_610_32863" x1="1439.97" y1="230.299" x2="929.301" y2="735.954" gradientUnits="userSpaceOnUse">
<stop stop-opacity="0"/>
<stop offset="0.118268" stop-color="#07FF99"/>
<stop offset="0.356744" stop-color="#0349A0"/>
<stop offset="0.973958" stop-opacity="0"/>
</linearGradient>
</defs>
</svg>
