<svg width="1440" height="641" viewBox="0 0 1440 641" fill="none" xmlns="http://www.w3.org/2000/svg">
<mask id="path-1-inside-1_610_32862" fill="white">
<path d="M1440 0.388672C1440 84.4347 1421.38 167.658 1385.19 245.306C1349.01 322.954 1295.98 393.508 1229.12 452.937C1162.26 512.367 1082.89 559.509 995.532 591.672C908.178 623.835 814.552 640.389 720 640.389C625.448 640.389 531.822 623.835 444.468 591.672C357.113 559.509 277.741 512.366 210.883 452.937C144.025 393.507 90.9901 322.954 54.8067 245.306C18.6233 167.658 -8.26597e-06 84.4346 0 0.388611L720 0.388672H1440Z"/>
</mask>
<path d="M1440 0.388672C1440 84.4347 1421.38 167.658 1385.19 245.306C1349.01 322.954 1295.98 393.508 1229.12 452.937C1162.26 512.367 1082.89 559.509 995.532 591.672C908.178 623.835 814.552 640.389 720 640.389C625.448 640.389 531.822 623.835 444.468 591.672C357.113 559.509 277.741 512.366 210.883 452.937C144.025 393.507 90.9901 322.954 54.8067 245.306C18.6233 167.658 -8.26597e-06 84.4346 0 0.388611L720 0.388672H1440Z" stroke="url(#paint0_linear_610_32862)" stroke-width="2" mask="url(#path-1-inside-1_610_32862)"/>
<defs>
<linearGradient id="paint0_linear_610_32862" x1="479.754" y1="-508.044" x2="-293.494" y2="-211.623" gradientUnits="userSpaceOnUse">
<stop stop-opacity="0"/>
<stop offset="0.510417" stop-color="#8DFDE9"/>
<stop offset="0.973958" stop-opacity="0"/>
</linearGradient>
</defs>
</svg>
