<svg width="73" height="73" viewBox="0 0 73 73" fill="none" xmlns="http://www.w3.org/2000/svg">
<path opacity="0.1" fill-rule="evenodd" clip-rule="evenodd" d="M38.5336 12.6846C37.9354 13.9701 37.6016 15.4021 37.6016 16.9115V22.9904C37.6016 28.5574 42.1419 33.0704 47.7428 33.0704H48.1622L50.9158 35.6661C53.4849 38.0878 57.5353 38.0345 60.0389 35.5459L62.5295 33.0704H62.9546C64.2136 33.0704 65.419 32.8424 66.5312 32.4256V48.6846C66.5312 55.312 61.1587 60.6846 54.5312 60.6846H18.5312C11.9038 60.6846 6.53125 55.312 6.53125 48.6846V24.6846C6.53125 18.0572 11.9038 12.6846 18.5312 12.6846H38.5336Z" fill="white"/>
<path opacity="0.2" fill-rule="evenodd" clip-rule="evenodd" d="M37.61 16.6816C37.6083 16.7581 37.6074 16.8347 37.6074 16.9115V22.9904C37.6074 28.5574 42.1325 33.0704 47.7146 33.0704H48.1326L50.8769 35.6661C53.4374 38.0878 57.4741 38.0345 59.9694 35.5459L62.4516 33.0704H62.5312V43.8816C62.5312 48.3621 62.5312 50.6023 61.6593 52.3136C60.8923 53.8189 59.6685 55.0427 58.1632 55.8097C56.4519 56.6816 54.2117 56.6816 49.7312 56.6816H23.3312C18.8508 56.6816 16.6106 56.6816 14.8993 55.8097C13.394 55.0427 12.1702 53.8189 11.4032 52.3136C10.5312 50.6023 10.5312 48.3621 10.5312 43.8816V29.4816C10.5312 25.0012 10.5312 22.761 11.4032 21.0497C12.1702 19.5444 13.394 18.3206 14.8993 17.5536C16.6106 16.6816 18.8508 16.6816 23.3313 16.6816H37.61Z" fill="#69FFE5"/>
<path d="M62.4611 48.7503C62.4997 53.1192 58.9688 56.6816 54.5997 56.6816L18.6435 56.6816C14.1632 56.6816 10.5312 53.0497 10.5312 48.5694L10.5312 43.8592C10.5312 41.8413 11.2564 39.8905 12.5744 38.3626C14.9866 35.5662 18.9402 34.6694 22.323 36.1512L24.8954 37.2781C26.1362 37.8217 27.2729 38.5771 28.2547 39.5105L31.62 42.7101C33.6823 44.6709 36.8398 44.9092 39.173 43.2802L39.3949 43.1252C41.9983 41.3076 45.5839 41.9587 47.382 44.5756C48.8658 46.7352 51.6274 47.61 54.084 46.6988L57.6696 45.3688C60.0112 44.5003 62.4949 46.2531 62.4611 48.7503Z" fill="#69FFE5" fill-opacity="0.4"/>
<path d="M33.0101 20.8052H21.1871C18.482 20.8052 16.2891 22.8887 16.2891 25.4589V46.4006C16.2891 48.9708 18.482 51.0543 21.1871 51.0543H51.7996C54.5047 51.0543 56.6977 48.9708 56.6977 46.4006V41.6726" stroke="url(#paint0_linear_605_22439)" stroke-width="2" stroke-linecap="round"/>
<path d="M34.6867 36.6817L34.6868 39.87L34.6868 41.0112C34.6868 41.8437 35.6448 42.3117 36.3015 41.7999L41.857 37.4705C42.3708 37.0701 42.3708 36.2933 41.857 35.8929L36.3015 31.5636C35.6447 31.0519 34.6868 31.5198 34.6868 32.3524L34.6868 33.4936" stroke="url(#paint1_linear_605_22439)" stroke-width="2" stroke-linecap="round" stroke-linejoin="round"/>
<mask id="path-6-inside-1_605_22439" fill="white">
<path fill-rule="evenodd" clip-rule="evenodd" d="M46.8711 12.2627C44.662 12.2627 42.8711 14.0536 42.8711 16.2627V22.9816C42.8711 25.1907 44.662 26.9816 46.8711 26.9816H49.9055L54.106 30.9651C54.5068 31.3452 55.1482 31.3367 55.5387 30.9462L59.5033 26.9816H62.6311C64.8402 26.9816 66.6311 25.1907 66.6311 22.9816V16.2627C66.6311 14.0536 64.8402 12.2627 62.6311 12.2627H46.8711Z"/>
</mask>
<path fill-rule="evenodd" clip-rule="evenodd" d="M46.8711 12.2627C44.662 12.2627 42.8711 14.0536 42.8711 16.2627V22.9816C42.8711 25.1907 44.662 26.9816 46.8711 26.9816H49.9055L54.106 30.9651C54.5068 31.3452 55.1482 31.3367 55.5387 30.9462L59.5033 26.9816H62.6311C64.8402 26.9816 66.6311 25.1907 66.6311 22.9816V16.2627C66.6311 14.0536 64.8402 12.2627 62.6311 12.2627H46.8711Z" fill="#69FFE5" fill-opacity="0.2"/>
<path d="M49.9055 26.9816L51.2818 25.5304L50.7031 24.9816H49.9055V26.9816ZM54.106 30.9651L52.7298 32.4163L52.7298 32.4163L54.106 30.9651ZM55.5387 30.9462L54.1245 29.532L54.1245 29.532L55.5387 30.9462ZM59.5033 26.9816V24.9816H58.6749L58.0891 25.5673L59.5033 26.9816ZM44.8711 16.2627C44.8711 15.1581 45.7665 14.2627 46.8711 14.2627V10.2627C43.5574 10.2627 40.8711 12.949 40.8711 16.2627H44.8711ZM44.8711 22.9816V16.2627H40.8711V22.9816H44.8711ZM46.8711 24.9816C45.7665 24.9816 44.8711 24.0861 44.8711 22.9816H40.8711C40.8711 26.2953 43.5574 28.9816 46.8711 28.9816V24.9816ZM49.9055 24.9816H46.8711V28.9816H49.9055V24.9816ZM55.4823 29.514L51.2818 25.5304L48.5293 28.4328L52.7298 32.4163L55.4823 29.514ZM54.1245 29.532C54.5005 29.156 55.0965 29.1481 55.4823 29.514L52.7298 32.4163C53.917 33.5422 55.796 33.5174 56.953 32.3604L54.1245 29.532ZM58.0891 25.5673L54.1245 29.532L56.9529 32.3604L60.9176 28.3958L58.0891 25.5673ZM62.6311 24.9816H59.5033V28.9816H62.6311V24.9816ZM64.6311 22.9816C64.6311 24.0861 63.7357 24.9816 62.6311 24.9816V28.9816C65.9448 28.9816 68.6311 26.2953 68.6311 22.9816H64.6311ZM64.6311 16.2627V22.9816H68.6311V16.2627H64.6311ZM62.6311 14.2627C63.7357 14.2627 64.6311 15.1581 64.6311 16.2627H68.6311C68.6311 12.949 65.9448 10.2627 62.6311 10.2627V14.2627ZM46.8711 14.2627H62.6311V10.2627H46.8711V14.2627Z" fill="url(#paint2_linear_605_22439)" mask="url(#path-6-inside-1_605_22439)"/>
<path d="M53.8724 17.1742C54.2514 16.4793 55.2492 16.4793 55.6282 17.1742L55.981 17.821C56.1248 18.0847 56.3796 18.2698 56.6748 18.3251L57.399 18.4607C58.177 18.6064 58.4854 19.5555 57.9416 20.1307L57.4354 20.666C57.2291 20.8843 57.1317 21.1838 57.1704 21.4817L57.2652 22.2123C57.3671 22.9973 56.5598 23.5838 55.8447 23.2443L55.1791 22.9284C54.9078 22.7996 54.5929 22.7996 54.3215 22.9284L53.6559 23.2443C52.9409 23.5838 52.1336 22.9973 52.2354 22.2123L52.3302 21.4817C52.3689 21.1838 52.2716 20.8843 52.0652 20.666L51.5591 20.1307C51.0153 19.5555 51.3236 18.6064 52.1017 18.4607L52.8258 18.3251C53.1211 18.2698 53.3758 18.0847 53.5196 17.821L53.8724 17.1742Z" fill="url(#paint3_linear_605_22439)"/>
<defs>
<linearGradient id="paint0_linear_605_22439" x1="22.1489" y1="6.6121" x2="47.8851" y2="48.4552" gradientUnits="userSpaceOnUse">
<stop stop-color="#FEFFD7"/>
<stop offset="0.557292" stop-color="#69FFE5"/>
<stop offset="1" stop-color="#EEFFD9"/>
</linearGradient>
<linearGradient id="paint1_linear_605_22439" x1="35.0392" y1="28.8517" x2="39.272" y2="42.833" gradientUnits="userSpaceOnUse">
<stop offset="0.015625" stop-color="#FEFFD7"/>
<stop offset="0.557292" stop-color="#69FFE5"/>
<stop offset="0.994792" stop-color="#3662FF"/>
</linearGradient>
<linearGradient id="paint2_linear_605_22439" x1="41.0737" y1="12.2627" x2="67.468" y2="29.9454" gradientUnits="userSpaceOnUse">
<stop offset="0.015625" stop-color="#FEFFD7"/>
<stop offset="0.557292" stop-color="#69FFE5"/>
<stop offset="0.994792" stop-color="#3662FF"/>
</linearGradient>
<linearGradient id="paint3_linear_605_22439" x1="49.3623" y1="15.5645" x2="61.0723" y2="21.8319" gradientUnits="userSpaceOnUse">
<stop offset="0.015625" stop-color="#FEFFD7"/>
<stop offset="0.557292" stop-color="#69FFE5"/>
<stop offset="0.994792" stop-color="#3662FF"/>
</linearGradient>
</defs>
</svg>
