<svg width="2048" height="1025" viewBox="0 0 2048 1025" fill="none" xmlns="http://www.w3.org/2000/svg">
<mask id="path-1-inside-1_610_48465" fill="white">
<path d="M2048.38 1024.11C2048.38 889.64 2021.9 756.483 1970.44 632.246C1918.98 508.008 1843.55 395.123 1748.46 300.036C1653.37 204.949 1540.49 129.522 1416.25 78.0607C1292.01 26.5998 1158.86 0.11324 1024.38 0.113216C889.91 0.113193 756.753 26.5997 632.515 78.0605C508.278 129.521 395.393 204.949 300.306 300.036C205.219 395.123 129.791 508.008 78.3304 632.245C26.8696 756.483 0.383003 889.64 0.382992 1024.11L1024.38 1024.11L2048.38 1024.11Z"/>
</mask>
<path d="M2048.38 1024.11C2048.38 889.64 2021.9 756.483 1970.44 632.246C1918.98 508.008 1843.55 395.123 1748.46 300.036C1653.37 204.949 1540.49 129.522 1416.25 78.0607C1292.01 26.5998 1158.86 0.11324 1024.38 0.113216C889.91 0.113193 756.753 26.5997 632.515 78.0605C508.278 129.521 395.393 204.949 300.306 300.036C205.219 395.123 129.791 508.008 78.3304 632.245C26.8696 756.483 0.383003 889.64 0.382992 1024.11L1024.38 1024.11L2048.38 1024.11Z" stroke="url(#paint0_linear_610_48465)" stroke-width="2" mask="url(#path-1-inside-1_610_48465)"/>
<defs>
<linearGradient id="paint0_linear_610_48465" x1="2048.38" y1="351.76" x2="1270.48" y2="1068.49" gradientUnits="userSpaceOnUse">
<stop stop-opacity="0"/>
<stop offset="0.118268" stop-color="#07FF99"/>
<stop offset="0.356744" stop-color="#0349A0"/>
<stop offset="0.973958" stop-opacity="0"/>
</linearGradient>
</defs>
</svg>
