<svg width="2048" height="1025" viewBox="0 0 2048 1025" fill="none" xmlns="http://www.w3.org/2000/svg">
    <mask id="path-1-inside-1_610_48464" fill="white">
        <path d="M2048 0.535156C2048 135.009 2021.51 268.166 1970.05 392.403C1918.59 516.64 1843.16 629.525 1748.08 724.613C1652.99 819.7 1540.11 895.127 1415.87 946.588C1291.63 998.049 1158.47 1024.54 1024 1024.54C889.526 1024.54 756.37 998.049 632.132 946.588C507.895 895.127 395.01 819.7 299.923 724.612C204.835 629.525 129.408 516.64 77.9473 392.403C26.4865 268.166 -1.17561e-05 135.009 0 0.535095L1024 0.535156H2048Z"/>
    </mask>
    <path d="M2048 0.535156C2048 135.009 2021.51 268.166 1970.05 392.403C1918.59 516.64 1843.16 629.525 1748.08 724.613C1652.99 819.7 1540.11 895.127 1415.87 946.588C1291.63 998.049 1158.47 1024.54 1024 1024.54C889.526 1024.54 756.37 998.049 632.132 946.588C507.895 895.127 395.01 819.7 299.923 724.612C204.835 629.525 129.408 516.64 77.9473 392.403C26.4865 268.166 -1.17561e-05 135.009 0 0.535095L1024 0.535156H2048Z"
          stroke="url(#paint0_linear_610_48464)" stroke-width="2" mask="url(#path-1-inside-1_610_48464)"/>
    <defs>
        <linearGradient id="paint0_linear_610_48464" x1="682.317" y1="-812.958" x2="-447.803" y2="-427.867"
                        gradientUnits="userSpaceOnUse">
            <stop stop-opacity="0"/>
            <stop offset="0.510417" stop-color="#8DFDE9"/>
            <stop offset="0.973958" stop-opacity="0"/>
        </linearGradient>
    </defs>
</svg>
