<svg width="1920" height="961" viewBox="0 0 1920 961" fill="none" xmlns="http://www.w3.org/2000/svg">
<mask id="path-1-inside-1_610_40664" fill="white">
<path d="M1920 960.571C1920 834.502 1895.17 709.667 1846.92 593.195C1798.68 476.722 1727.97 370.893 1638.82 281.748C1549.68 192.604 1443.85 121.891 1327.38 73.6466C1210.9 25.4022 1086.07 0.570991 960 0.570969C833.931 0.570947 709.097 25.4021 592.624 73.6466C476.151 121.891 370.322 192.604 281.178 281.748C192.033 370.892 121.32 476.722 73.0758 593.195C24.8313 709.667 0.000178873 834.502 0.000167852 960.571L960 960.571L1920 960.571Z"/>
</mask>
<path d="M1920 960.571C1920 834.502 1895.17 709.667 1846.92 593.195C1798.68 476.722 1727.97 370.893 1638.82 281.748C1549.68 192.604 1443.85 121.891 1327.38 73.6466C1210.9 25.4022 1086.07 0.570991 960 0.570969C833.931 0.570947 709.097 25.4021 592.624 73.6466C476.151 121.891 370.322 192.604 281.178 281.748C192.033 370.892 121.32 476.722 73.0758 593.195C24.8313 709.667 0.000178873 834.502 0.000167852 960.571L960 960.571L1920 960.571Z" stroke="url(#paint0_linear_610_40664)" stroke-width="2" mask="url(#path-1-inside-1_610_40664)"/>
<defs>
<linearGradient id="paint0_linear_610_40664" x1="1920" y1="330.24" x2="1190.71" y2="1002.17" gradientUnits="userSpaceOnUse">
<stop stop-opacity="0"/>
<stop offset="0.118268" stop-color="#07FF99"/>
<stop offset="0.356744" stop-color="#0349A0"/>
<stop offset="0.973958" stop-opacity="0"/>
</linearGradient>
</defs>
</svg>
