<svg width="1920" height="960" viewBox="0 0 1920 960" fill="none" xmlns="http://www.w3.org/2000/svg">
<mask id="path-1-inside-1_610_40663" fill="white">
<path d="M1920 0C1920 126.069 1895.17 250.904 1846.92 367.376C1798.68 483.849 1727.97 589.678 1638.82 678.823C1549.68 767.967 1443.85 838.68 1327.38 886.924C1210.9 935.169 1086.07 960 960 960C833.931 960 709.096 935.169 592.624 886.924C476.151 838.68 370.322 767.967 281.177 678.823C192.033 589.678 121.32 483.849 73.0756 367.376C24.8311 250.903 -1.10213e-05 126.069 0 -6.10352e-05L960 0H1920Z"/>
</mask>
<path d="M1920 0C1920 126.069 1895.17 250.904 1846.92 367.376C1798.68 483.849 1727.97 589.678 1638.82 678.823C1549.68 767.967 1443.85 838.68 1327.38 886.924C1210.9 935.169 1086.07 960 960 960C833.931 960 709.096 935.169 592.624 886.924C476.151 838.68 370.322 767.967 281.177 678.823C192.033 589.678 121.32 483.849 73.0756 367.376C24.8311 250.903 -1.10213e-05 126.069 0 -6.10352e-05L960 0H1920Z" stroke="url(#paint0_linear_610_40663)" stroke-width="2" mask="url(#path-1-inside-1_610_40663)"/>
<defs>
<linearGradient id="paint0_linear_610_40663" x1="639.672" y1="-762.65" x2="-419.816" y2="-401.627" gradientUnits="userSpaceOnUse">
<stop stop-opacity="0"/>
<stop offset="0.510417" stop-color="#8DFDE9"/>
<stop offset="0.973958" stop-opacity="0"/>
</linearGradient>
</defs>
</svg>
