<svg width="1280" height="671" viewBox="0 0 1280 671" fill="none" xmlns="http://www.w3.org/2000/svg">
<mask id="path-1-inside-1_610_25062" fill="white">
<path d="M1310 670.217C1310 582.232 1292.67 495.108 1259 413.819C1225.33 332.531 1175.98 258.671 1113.76 196.456C1051.55 134.241 977.686 84.8887 896.398 51.2182C815.11 17.5475 727.986 0.217418 640 0.217402C552.014 0.217387 464.89 17.5474 383.602 51.2181C302.314 84.8887 228.454 134.241 166.239 196.456C104.023 258.671 54.6715 332.531 21.0008 413.819C-12.6698 495.107 -29.9999 582.231 -29.9999 670.217L640 670.217L1310 670.217Z"/>
</mask>
<path d="M1310 670.217C1310 582.232 1292.67 495.108 1259 413.819C1225.33 332.531 1175.98 258.671 1113.76 196.456C1051.55 134.241 977.686 84.8887 896.398 51.2182C815.11 17.5475 727.986 0.217418 640 0.217402C552.014 0.217387 464.89 17.5474 383.602 51.2181C302.314 84.8887 228.454 134.241 166.239 196.456C104.023 258.671 54.6715 332.531 21.0008 413.819C-12.6698 495.107 -29.9999 582.231 -29.9999 670.217L640 670.217L1310 670.217Z" stroke="url(#paint0_linear_610_25062)" stroke-width="2" mask="url(#path-1-inside-1_610_25062)"/>
<defs>
<linearGradient id="paint0_linear_610_25062" x1="1310" y1="230.299" x2="801.018" y2="699.252" gradientUnits="userSpaceOnUse">
<stop stop-opacity="0"/>
<stop offset="0.118268" stop-color="#07FF99"/>
<stop offset="0.356744" stop-color="#0349A0"/>
<stop offset="0.973958" stop-opacity="0"/>
</linearGradient>
</defs>
</svg>
