<svg width="1280" height="641" viewBox="0 0 1280 641" fill="none" xmlns="http://www.w3.org/2000/svg">
<mask id="path-1-inside-1_610_25061" fill="white">
<path d="M1280 0.198242C1280 84.2443 1263.45 167.467 1231.28 245.116C1199.12 322.764 1151.98 393.317 1092.55 452.747C1033.12 512.176 962.566 559.318 884.917 591.481C807.269 623.644 724.046 640.198 640 640.198C555.954 640.198 472.731 623.644 395.083 591.481C317.434 559.318 246.881 512.176 187.452 452.747C128.022 393.317 80.8801 322.764 48.7171 245.116C16.5541 167.467 -7.34753e-06 84.2442 0 0.198181L640 0.198242H1280Z"/>
</mask>
<path d="M1280 0.198242C1280 84.2443 1263.45 167.467 1231.28 245.116C1199.12 322.764 1151.98 393.317 1092.55 452.747C1033.12 512.176 962.566 559.318 884.917 591.481C807.269 623.644 724.046 640.198 640 640.198C555.954 640.198 472.731 623.644 395.083 591.481C317.434 559.318 246.881 512.176 187.452 452.747C128.022 393.317 80.8801 322.764 48.7171 245.116C16.5541 167.467 -7.34753e-06 84.2442 0 0.198181L640 0.198242H1280Z" stroke="url(#paint0_linear_610_25061)" stroke-width="2" mask="url(#path-1-inside-1_610_25061)"/>
<defs>
<linearGradient id="paint0_linear_610_25061" x1="426.448" y1="-508.235" x2="-279.877" y2="-267.553" gradientUnits="userSpaceOnUse">
<stop stop-opacity="0"/>
<stop offset="0.510417" stop-color="#8DFDE9"/>
<stop offset="0.973958" stop-opacity="0"/>
</linearGradient>
</defs>
</svg>
